<?xml version="1.0" encoding="utf-8"?>
<!-- Uploaded to: SVG Repo, www.svgrepo.com, Generator: SVG Repo Mixer Tools -->
<svg width="800px" height="800px" viewBox="0 0 1024 1024" class="icon"  version="1.1" xmlns="http://www.w3.org/2000/svg"><path d="M694.763748 150.73078c8.471793-9.271019 207.702788 4.155974 199.230995 13.395023l-214.064625 234.045269a22.704405 22.704405 0 0 1-32.096906 1.438606l-81.648903-74.679654c-9.23905-8.439824-9.87843-22.825887-1.406637-32.064937l129.986076-142.134307z" fill="#FF4893" /><path d="M671.266511 426.943199c15.217258 13.906528 16.272236 37.56361 2.365708 52.780868l-352.234773 385.130905c-13.938497 15.217258-37.56361 16.272236-52.812837 2.365708l-134.333864-122.888951c-15.249227-13.938497-16.304205-37.56361-2.365709-52.780869l352.234773-385.130904c13.906528-15.249227 37.56361-16.304205 52.780868-2.365709l134.365834 122.888952z" fill="#8B87C1" /><path d="M293.80178 899.37513c-14.939128 0-29.251662-5.546627-40.296963-15.623265L119.148575 760.843733a59.347307 59.347307 0 0 1-19.379626-41.422273 59.270582 59.270582 0 0 1 15.616871-42.985557L467.607805 291.317786a59.807661 59.807661 0 0 1 44.091686-19.440367c14.964703 0 29.283631 5.565808 40.319341 15.677612l134.353045 122.876164a59.331323 59.331323 0 0 1 19.357248 41.412681 59.363292 59.363292 0 0 1-15.578508 42.979164L337.912647 879.960338a59.957916 59.957916 0 0 1-44.110867 19.414792z m217.897711-582.744266c-4.258275 0-8.184072 1.729525-11.042103 4.865686L148.400237 706.65303a14.856008 14.856008 0 0 0-3.9226 10.767169 14.891174 14.891174 0 0 0 4.87208 10.393132l134.337061 122.892148a14.993475 14.993475 0 0 0 10.111805 3.913009 14.891174 14.891174 0 0 0 11.09645-4.878474l352.221985-385.118116a14.897568 14.897568 0 0 0 3.897025-10.779957 14.856008 14.856008 0 0 0-4.846505-10.380344l-134.372227-122.892149a14.881583 14.881583 0 0 0-10.09582-3.938584z" fill="#4F46A3" /><path d="M663.159165 427.943829a45.021985 45.021985 0 0 1-30.424926-11.815753l-81.655297-74.686048a44.737461 44.737461 0 0 1-14.597059-31.240136 44.77902 44.77902 0 0 1 11.796572-32.454959l129.966895-142.115126c7.551085-8.260797 17.739615-10.399525 49.536012-10.399526 27.554107 0 68.790959 2.084381 105.050232 5.310056 18.324648 1.630421 34.034229 3.439868 45.431189 5.236527 17.793962 2.803684 30.827736 5.77041 36.409528 18.458918a23.203122 23.203122 0 0 1-4.184746 25.012569l-214.04864 234.026087a45.178633 45.178633 0 0 1-33.27976 14.667391z m43.701664-257.280359L581.292873 307.967257c0.003197 0.003197-0.009591 0.44437-0.003197 0.450763l81.869489 74.772364a0.287721 0.287721 0 0 0 0.252555-0.115088l188.131348-205.691936c-34.248422-3.797921-87.310618-7.397634-123.758509-7.397634-11.032512-0.003197-17.419924 0.358053-20.92373 0.677744zM427.528232 671.346433a22.378321 22.378321 0 0 1-16.50561-37.480491l168.281777-184.016933a22.378321 22.378321 0 0 1 31.617371-1.409834 22.378321 22.378321 0 0 1 1.413031 31.61737l-168.284974 184.013737a22.320777 22.320777 0 0 1-16.521595 7.276151zM361.384309 743.692348a22.378321 22.378321 0 0 1-16.515201-37.474097l11.508851-12.595798a22.378321 22.378321 0 0 1 31.614174-1.425818 22.378321 22.378321 0 0 1 1.429015 31.614173l-11.508851 12.595798a22.320777 22.320777 0 0 1-16.527988 7.285742z" fill="#4F46A3" /></svg>