<?xml version="1.0" encoding="utf-8"?>
<!-- Uploaded to: SVG Repo, www.svgrepo.com, Generator: SVG Repo Mixer Tools -->
<svg width="800px" height="800px" viewBox="0 -17.23 306.525 306.525" xmlns="http://www.w3.org/2000/svg"><defs><style>.a{fill:#ffffff;}.b{fill:#f4c058;}.c{fill:#211715;}.d{fill:#ea6d67;}.e{fill:#8ac46e;}.f{fill:#a0a0a0;}</style></defs><path class="a" d="M304.418,190.49c-.017-11.951-.077-36.41-.077-45.1,0,0,0-.122.006-.357-53.9-31.009-135.061-77.918-171.922-99.254C101.212,63.835,38.394,100.133,2.052,121.01c0,10.138.074,40.174.068,49.085,33.15,19.195,119.957,69.373,173.325,100.059,37.885-21.778,99.829-57.576,128.978-74.447v-.459C304.423,194.084,304.421,192.457,304.418,190.49Z"/><path class="b" d="M131.706,46.192C100.37,64.322,38.567,100.033,2.445,120.785c27.372,15.853,126.347,73.071,172.227,99.384,33.5-19.2,106.859-61.578,129.669-74.782,0,0,0-.122.006-.357-53.9-31.009-135.061-77.918-171.922-99.254Z"/><path class="c" d="M306.418,190.49q-.017-12.1-.046-24.2c-.014-7.081-.18-14.181-.025-21.26a2,2,0,0,0-.99-1.726q-35.7-20.54-71.365-41.139Q198.616,81.746,163.256,61.3q-14.913-8.622-29.822-17.251a2.022,2.022,0,0,0-2.019,0Q107.654,57.8,83.881,71.527q-27.843,16.083-55.7,32.14-13.564,7.816-27.137,15.617a2.011,2.011,0,0,0-.99,1.726q0,17.326.052,34.652.008,4.276.013,8.554a38.655,38.655,0,0,0,.039,6.145c.23,1.363,1.723,1.906,2.8,2.532L5.7,174.478l6.032,3.49Q26.9,186.749,42.08,195.521q18.662,10.788,37.328,21.569Q99.25,228.549,119.1,240,138.174,251,157.259,262c5.65,3.253,11.22,6.807,17.015,9.791,1.709.88,3.314-.559,4.778-1.4l4.2-2.414q4.42-2.544,8.84-5.089,19.689-11.337,39.363-22.7,19.755-11.4,39.5-22.815,16.167-9.345,32.33-18.7c1.141-.661,2.865-1.267,3.1-2.706a34.233,34.233,0,0,0,.031-5.482c0-2.573-4-2.578-4,0q0,2.608,0,5.217l.99-1.727q-22.851,13.226-45.715,26.432-27.7,16-55.409,31.979-13.923,8.025-27.854,16.036h2.019q-36.443-20.955-72.843-41.982Q67.646,205.685,31.7,184.9q-14.285-8.26-28.565-16.528l.99,1.727c.008-13.314-.041-26.627-.06-39.941q-.007-4.572-.008-9.144l-.991,1.727q25.616-14.715,51.2-29.489Q81.6,77.471,108.934,61.671q12.252-7.081,24.5-14.168h-2.019q29.592,17.128,59.2,34.23,37.073,21.421,74.163,42.811,19.275,11.115,38.561,22.213l-.991-1.727c-.155,7.079.011,14.179.025,21.26q.024,12.1.046,24.2C302.422,193.064,306.422,193.068,306.418,190.49Z"/><path class="c" d="M173.07,220.035q0,20.736.072,41.472.007,4.2.01,8.389c0,2.574,4,2.578,4,0,0-13.5-.05-27-.072-40.5q-.008-4.683-.01-9.366c0-2.573-4-2.578-4,0Z"/><path class="c" d="M3.431,123.658q12.11,7.017,24.226,14.022,17.038,9.856,34.083,19.7,19.348,11.179,38.7,22.349,19.039,10.987,38.085,21.96,16.109,9.279,32.23,18.536l3.306,1.9c2.236,1.282,4.254-2.172,2.018-3.454q-15.582-8.935-31.146-17.9-18.829-10.842-37.647-21.7Q87.831,167.838,68.379,156.6,50.91,146.507,33.444,136.406q-12.863-7.439-25.721-14.885L5.45,120.2c-2.232-1.293-4.248,2.162-2.019,3.454Z"/><path class="c" d="M175.093,235.158q-13.441-7.707-26.865-15.444-16.377-9.43-32.745-18.876Q98.6,191.1,81.724,181.347q-15.236-8.8-30.468-17.61-11.166-6.458-22.331-12.92l-1.985-1.15c-2.232-1.292-4.248,2.163-2.019,3.454q10.509,6.087,21.023,12.166,14.86,8.593,29.723,17.181,16.79,9.7,33.584,19.392,16.566,9.561,33.138,19.108,13.9,8.01,27.822,16l2.863,1.642c2.237,1.283,4.254-2.172,2.019-3.454Z"/><path class="c" d="M164.115,245.038q-13.019-7.466-26-15c-2.232-1.293-4.248,2.163-2.019,3.454q12.987,7.521,26,15c2.237,1.283,4.254-2.172,2.019-3.454Z"/><path class="d" d="M249.423,233.117c-4.618,2.652-19.594,11.305-26.406,15.226-6.573-3.775-18.231-10.494-26.936-15.517,8.226-4.732,17.274-9.942,26.426-15.226C231.441,222.759,243.172,229.529,249.423,233.117Z"/><path class="c" d="M196.081,234.826h.01l-1.009-.273q12.546,7.254,25.113,14.475a8.033,8.033,0,0,0,2.556,1.279c1,.135,1.928-.613,2.756-1.09q2.365-1.362,4.73-2.727,5.376-3.1,10.752-6.2,4.72-2.722,9.443-5.442a2.019,2.019,0,0,0,0-3.454q-13.471-7.734-26.915-15.517c-2.234-1.289-4.25,2.166-2.019,3.454q13.452,7.769,26.915,15.517V231.39q-13.215,7.591-26.4,15.226h2.018q-6.6-3.794-13.2-7.6-3.7-2.132-7.4-4.265l-3.672-2.12c-1.027-.593-2.463-1.809-3.677-1.809-2.574,0-2.578,4,0,4Z"/><path class="c" d="M286.81,178.153q-18.458,10.689-36.931,21.348-24.841,14.343-49.7,28.659-12.856,7.4-25.721,14.785c-2.234,1.278-.221,4.736,2.019,3.453q23.758-13.6,47.456-27.311,23.481-13.537,46.948-27.1,8.974-5.189,17.947-10.382c2.227-1.289.215-4.747-2.019-3.453Z"/><path class="c" d="M175.9,221.77q26.069-14.94,52.086-29.972,28.068-16.186,56.119-32.4,10.623-6.139,21.243-12.284c2.227-1.29.215-4.748-2.019-3.454q-22.163,12.829-44.342,25.628-29.14,16.828-58.3,33.623-13.4,7.713-26.807,15.405c-2.233,1.28-.221,4.738,2.019,3.454Z"/><path class="a" d="M262.249,117.179c-.013-8.922-.058-27.182-.058-33.672,0,0,0-.091.005-.266C221.958,60.09,161.365,25.07,133.847,9.142c-23.3,13.482-70.2,40.581-97.331,56.167,0,7.568.056,29.991.051,36.644,24.749,14.33,89.555,51.79,129.4,74.7,28.284-16.259,74.528-42.983,96.289-55.579v-.343C262.252,119.862,262.251,118.647,262.249,117.179Z"/><path class="e" d="M132.1,10.152C108.27,23.939,62.986,50.1,36.516,65.309c0,7.568.056,29.991.051,36.644,10.763,6.232,29.1,16.839,49.67,28.721-.015-9.132-.054-29.307-.058-36.983,41.833-24.165,77.077-44.544,96.955-56.052-19.693-11.377-37.516-21.683-49.287-28.5Z"/><path class="c" d="M264.249,117.179c-.017-11.3-.3-22.638-.053-33.938a2,2,0,0,0-.991-1.727q-26.644-15.33-53.265-30.7-26.406-15.243-52.8-30.5Q146,13.863,134.856,7.415a2.022,2.022,0,0,0-2.019,0Q115.073,17.695,97.3,27.959,76.566,39.934,55.822,51.891q-10.155,5.85-20.315,11.691a2.012,2.012,0,0,0-.991,1.727q0,13.086.04,26.174.006,3.168.009,6.336c0,1.422-.307,3.282.074,4.666.407,1.478,3.19,2.51,4.45,3.239l4.6,2.665q25.283,14.629,50.579,29.236,29.014,16.758,58.045,33.482l6.622,3.812,3.049,1.754a24.771,24.771,0,0,0,3.205,1.807c1.32.51,2.554-.546,3.655-1.179l3.327-1.914q3.364-1.935,6.727-3.872,14.649-8.437,29.29-16.889,26.814-15.477,53.612-30.982c1.092-.632,2.346-1.125,2.448-2.571.091-1.284,0-2.607,0-3.894,0-2.574-4-2.578-4,0q0,1.947,0,3.894l.991-1.727q-17.022,9.853-34.054,19.69-20.719,11.97-41.45,23.923-10.391,5.988-20.785,11.966h2.019q-27.173-15.624-54.314-31.3-26.819-15.48-53.624-30.981Q48.3,106.436,37.577,100.226l.99,1.727c.006-9.911-.03-19.823-.045-29.734q0-3.456-.006-6.91l-.99,1.726q19.149-11,38.273-22.045,20.362-11.748,40.713-23.513,9.174-5.3,18.344-10.608h-2.019q22.086,12.785,44.184,25.548,27.671,15.989,55.355,31.954,14.4,8.3,28.81,16.6l-.99-1.727c-.248,11.3.036,22.634.053,33.938C260.253,119.752,264.253,119.757,264.249,117.179Z"/><path class="c" d="M163.684,139.236c0,8.463.06,16.927.061,25.39,0,2.574,4,2.578,4,0,0-8.463-.06-16.927-.061-25.39,0-2.574-4-2.578-4,0Z"/><path class="c" d="M167.078,138q-22.767-13.055-45.486-26.189Q97.081,97.668,72.583,83.5,63.3,78.136,54.028,72.765c-2.231-1.293-4.248,2.163-2.019,3.454Q71.364,87.428,90.732,98.612q25.449,14.7,50.913,29.379,11.7,6.74,23.414,13.463c2.237,1.282,4.254-2.172,2.019-3.454Z"/><path class="c" d="M166.56,140.969q16.453-9.43,32.875-18.917,17.652-10.181,35.295-20.377,6.756-3.9,13.509-7.813c2.228-1.289.216-4.747-2.018-3.454q-13.989,8.1-27.988,16.176-18.321,10.581-36.655,21.14-8.516,4.9-17.037,9.791c-2.233,1.28-.22,4.737,2.019,3.454Z"/><path class="c" d="M87.3,95.352Q109.259,82.67,131.21,69.981q17.827-10.3,35.652-20.616,7.624-4.41,15.247-8.823c2.227-1.289.216-4.747-2.019-3.453Q165.348,45.623,150.6,54.15q-19.836,11.47-39.675,22.934Q98.1,84.492,85.285,91.9c-2.229,1.287-.217,4.745,2.018,3.454Z"/><path class="c" d="M84.174,93.674c.013,11.343.061,22.686.062,34.029,0,2.574,4,2.578,4,0,0-11.343-.049-22.686-.062-34.029,0-2.574-4-2.578-4,0Z"/><path class="f" d="M147.461,94.428a15.788,15.788,0,0,1-1.6,6.165c-1.986,3.9-5.818,6.569-9.853,8.269s-4.613,1.259-8.788,2.576c-3.255,1.027-6.663,2.506-8.058,5.8a19.253,19.253,0,0,0-1.031,5.232c-.3,6.747-.246,13.766-.33,20.71a2.278,2.278,0,0,1-1.57,2.19,32.139,32.139,0,0,1-14.655.781,2.917,2.917,0,0,1-1.3-.873,3.95,3.95,0,0,1-1.1-1.831c-.376-3.152-.557-6.188-.664-9.227-3.493.775-7.485,2.115-11.2,1.209-2.583-.631-5.005-2.6-5.4-5.229l-.328-2.172c-.577-10.619-1.154-9.282-1.73-19.9-.194-3.573-.35-7.34,1.282-10.525A17.817,17.817,0,0,1,86.806,91.7a69.034,69.034,0,0,1,14.464-8.108S140.778,93.065,147.461,94.428Z"/><path class="a" d="M139.38,97.987c2.3-1.288,5.263-2.738,8.123-4.452,4.746-2.839,9.258-6.429,10.191-11.246a20.12,20.12,0,0,0-.03-6.287c-.913-7.372-2.657-16.783-7.251-22.847-2.8-3.712-7.22-8.5-11.53-10.709,0,0-7.477-3.62-14.741-4.093-11.662-.761-17.63,4.211-17.63,4.211a35.256,35.256,0,0,0-13.2,20.8L91.278,75.076,90.543,79.3Z"/><path class="a" d="M92.631,155.7a7.357,7.357,0,0,1,1.429-6.019A18.161,18.161,0,0,1,99.5,145.3c2.1,1.645,10.632,1.962,16.738.07a2.155,2.155,0,0,0,.583-.281c.075.713.123,1.153.123,1.153.635,5.8-2.878,8.132-5.108,9.459a33.622,33.622,0,0,1-8.5,3.579,13.918,13.918,0,0,1-5.547.543,6.448,6.448,0,0,1-4.623-2.849A4.982,4.982,0,0,1,92.631,155.7Z"/><path class="a" d="M74.768,143.132A8,8,0,0,1,75.911,141a19.28,19.28,0,0,1,5.892-4.613,9.892,9.892,0,0,1,3.808-1.581,8.174,8.174,0,0,0,1.708.628c3.715.906,7.706-.433,11.2-1.209.075,2.191.191,4.379.39,6.611l-1.569.259c.117,2.5-2.1,4.45-4.252,5.729a32.465,32.465,0,0,1-8.218,3.459,13.348,13.348,0,0,1-5.363.52,6.193,6.193,0,0,1-4.469-2.752A5.832,5.832,0,0,1,74.768,143.132Z"/><path class="a" d="M107.251,23.032a23.038,23.038,0,0,0,5.485,16.042A19.877,19.877,0,0,0,140.655,41.1a11.483,11.483,0,0,0,7.635-2.391,7.284,7.284,0,0,0,2.771-6.5,5.292,5.292,0,0,0-3.085-3.9,18.979,18.979,0,0,0-6.568-22.174C132.511-.185,119.934.685,112.623,9A22.458,22.458,0,0,0,107.251,23.032Z"/><path class="a" d="M110.148,12.5a22.731,22.731,0,0,0-2.6,7.5,38.087,38.087,0,0,0,15.638-1.884,1.078,1.078,0,0,1,.861.074c.63.355-.131,1.732-.487,2.362,2.24.631,7.725-.4,10.149-1.732,1.347,3.276,2.723,4.983,5.365,6.22l7.092,2.825a5.048,5.048,0,0,1,1.812.445,18.99,18.99,0,0,0-6.573-22.176C132.511-.185,119.934.685,112.623,9A20.521,20.521,0,0,0,110.148,12.5Z"/><path class="c" d="M114.94,146.245a7.175,7.175,0,0,1-2.6,6.745,27.785,27.785,0,0,1-9.546,4.364c-2.774.735-8.287,1.217-8.341-3.036-.048-3.8,3.874-6,6.706-7.676,2.215-1.309.2-4.768-2.019-3.454-3.347,1.978-6.708,4.2-8.125,8a7.647,7.647,0,0,0,3.415,9.614c3.843,2.013,8.374.934,12.235-.468a28.569,28.569,0,0,0,8.716-4.684,10.7,10.7,0,0,0,3.558-9.4,2.054,2.054,0,0,0-2-2,2.015,2.015,0,0,0-2,2Z"/><path class="c" d="M84.813,132.913a16.028,16.028,0,0,0-4.947,2.3,23.931,23.931,0,0,0-4.18,3.047c-2.462,2.347-4.081,6.01-2.991,9.4,1.151,3.586,4.914,5.327,8.474,5.233,3.839-.1,7.774-1.632,11.153-3.361,3.325-1.7,7.049-4.282,7.021-8.439-.017-2.573-4.018-2.579-4,0,.02,2.938-4.316,4.709-6.506,5.69a29.388,29.388,0,0,1-4.9,1.675,8.87,8.87,0,0,1-5.218.091c-2.89-1.084-2.818-4.228-1.172-6.419a13.333,13.333,0,0,1,3.723-3.089,14.6,14.6,0,0,1,4.607-2.271c2.52-.514,1.454-4.37-1.063-3.857Z"/><path class="c" d="M100.738,81.659A70.437,70.437,0,0,0,84.8,90.715a17.462,17.462,0,0,0-5.745,6.654,20.215,20.215,0,0,0-1.288,8.816c.145,4.315.56,8.6,1.078,12.883.468,3.87.445,7.814,1.139,11.649a8.577,8.577,0,0,0,5.239,6.1c3.36,1.443,7.061.906,10.516.125,2.51-.567,1.448-4.424-1.063-3.857-3.733.844-10.033,1.5-10.863-3.615-.548-3.375-.543-6.856-.955-10.287-.432-3.6-.787-7.185-.987-10.805a26.629,26.629,0,0,1,.258-7.649,11.422,11.422,0,0,1,4.123-6.086A59.884,59.884,0,0,1,101.8,85.516a2.066,2.066,0,0,0,1.4-2.46,2.012,2.012,0,0,0-2.46-1.4Z"/><path class="c" d="M100.323,100.945c-3.427,2.382-4.287,6.117-4.349,10.043-.063,3.983.149,7.963.273,11.942.163,5.22.14,10.447.49,15.66.162,2.414-.016,5.365,1.518,7.366,1.47,1.92,3.274,2.323,5.555,2.563a32.691,32.691,0,0,0,6.583-.023,25.435,25.435,0,0,0,6.682-1.313c2.61-1.017,2.724-3.519,2.747-5.939.027-2.749.037-5.5.064-8.248.026-2.719.067-5.438.157-8.156a21.139,21.139,0,0,1,.869-6.582c1.335-3.615,6.074-4.806,9.41-5.611,4.326-1.044,8.49-2.4,12.092-5.127A17.664,17.664,0,0,0,149.5,93.535c.1-2.574-3.9-2.57-4,0a13.519,13.519,0,0,1-5.209,10.605,24.277,24.277,0,0,1-9.661,4.338c-3.565.792-7.352,1.8-10.27,4.1-3.241,2.55-4.041,6.447-4.248,10.374-.263,4.957-.232,9.935-.266,14.9q-.012,1.821-.029,3.642a6.466,6.466,0,0,1-.019,1.7c-.113.321-.066.2-.277.317a10.253,10.253,0,0,1-2.864.678,29.023,29.023,0,0,1-3.068.386,31.906,31.906,0,0,1-5.782-.046,4.814,4.814,0,0,1-1.833-.38c-.931-.554-.906-1.627-1-2.559-.458-4.708-.531-9.44-.625-14.167-.09-4.49-.319-8.977-.379-13.468-.022-1.691-.05-3.395.08-5.083.011-.14.022-.28.036-.419.041-.4-.026.122.011-.066a9.2,9.2,0,0,1,.433-1.564,5.215,5.215,0,0,1,1.8-2.414c2.1-1.459.1-4.928-2.018-3.454Z"/><path class="c" d="M105.5,40.837a37.573,37.573,0,0,0-14.117,21.99c-.535,2.511,3.32,3.584,3.857,1.064a33.437,33.437,0,0,1,12.278-19.6,2.066,2.066,0,0,0,.718-2.737,2.013,2.013,0,0,0-2.736-.717Z"/><path class="a" d="M93.232,83.583c-2.224-1.387-3.149-3.73-3.512-6.217-.407-2.789.07-6.338,4.126-7.352a5.783,5.783,0,0,1,4.226.789,7.92,7.92,0,0,1,3.891,7.683c-.274,3.3-3.391,6.335-6.673,5.856A5.31,5.31,0,0,1,93.232,83.583Z"/><path class="c" d="M94.241,81.856a4.828,4.828,0,0,1-1.2-1.091c.179.223-.081-.121-.118-.177q-.142-.215-.27-.439c-.068-.119-.133-.241-.2-.364,0,0-.247-.563-.135-.281A10.9,10.9,0,0,1,91.8,77.68q-.054-.263-.1-.527c-.023-.136-.076-.62-.019-.084-.026-.252-.052-.505-.065-.759a11.069,11.069,0,0,1,.031-1.4c.028-.375,0,0-.01.067.026-.128.046-.256.074-.384.063-.281.153-.547.242-.821-.146.45.086-.166.161-.3s.481-.638.185-.31a7.316,7.316,0,0,1,.518-.524c.232-.21-.39.224.072-.053.155-.093.3-.193.464-.279.11-.059.224-.117.339-.167-.287.125.028,0,.076-.018a8.131,8.131,0,0,1,.907-.241c-.447.076.185.013.35.016s.33.012.494.03c.141.013.135.013-.017,0,.106.019.21.041.314.067a4.088,4.088,0,0,1,1.6.775c.023.016.3.225.1.064.108.084.212.173.315.262a8.939,8.939,0,0,1,.78.765,5.348,5.348,0,0,1,1.266,2.531c-.007-.033.112.588.068.309s.034.363.031.326a8.938,8.938,0,0,1,.019.926c-.005.177-.014.355-.029.532.007-.088.073-.34-.01.071a8.113,8.113,0,0,1-.268.98c-.2.6.086-.151-.078.179-.091.183-.187.363-.292.538a2.522,2.522,0,0,1-.474.661,6.633,6.633,0,0,1-.73.7c.217-.177-.04.028-.076.051-.169.108-.335.217-.51.314a3.426,3.426,0,0,1-1.436.409,3.118,3.118,0,0,1-1.848-.535,2,2,0,0,0-2.019,3.454c3.7,2.2,8,.706,10.326-2.693a9.513,9.513,0,0,0-.039-10.193c-1.981-3.046-5.7-5.311-9.4-4.283a7.482,7.482,0,0,0-5.485,7.081c-.247,3.835,1.314,7.961,4.6,10.088a2,2,0,0,0,2.019-3.454Z"/><path class="c" d="M106.094,57.193V79.486c0,2.574,4,2.578,4,0V57.193c0-2.574-4-2.578-4,0Z"/><path class="a" d="M107.4,83.278c-6.151,1.043-12.429,3.443-21.5,4.948,5.591,2.7,16.106,7.871,26.161,12.9,8.737-3.558,11.224-4.178,16.692-6.274C119.605,90.132,107.418,83.275,107.4,83.278Z"/><path class="c" d="M106.869,81.35c-7.252,1.256-14.23,3.722-21.5,4.947-1.664.281-1.971,2.935-.477,3.655,5.911,2.852,11.8,5.759,17.674,8.676q2.648,1.313,5.291,2.631c.924.461,1.843.933,2.771,1.384a3.16,3.16,0,0,0,3.079-.037q4.137-1.668,8.332-3.188c2.418-.871,4.845-1.717,7.246-2.635,1.479-.565,2.138-2.8.478-3.655-4.738-2.449-9.427-4.992-14.1-7.561-2.408-1.323-4.776-2.822-7.252-4.016-2.309-1.112-4.34,2.336-2.019,3.454,2.476,1.194,4.844,2.693,7.252,4.016,4.674,2.569,9.363,5.111,14.1,7.561l.478-3.656c-5.555,2.124-11.178,4.034-16.691,6.274l1.541.2c-8.7-4.35-17.4-8.679-26.161-12.9l-.478,3.655c7.27-1.225,14.247-3.691,21.5-4.947a2.017,2.017,0,0,0,1.4-2.46A2.046,2.046,0,0,0,106.869,81.35Z"/><path class="a" d="M123.505,92.541c.59-4.78,5.592-8.766,12.015-6,.97,2.982,2.655,7.49,3.691,11.258-1.412,1.143-2.633,2.135-2.633,2.135-2.067,2.494-6.63,2.045-9.112.535A8.248,8.248,0,0,1,123.505,92.541Z"/><path class="c" d="M134.828,84.157a10.873,10.873,0,0,0-8.11.607,9.93,9.93,0,0,0-4.664,5.356c-1.98,5.2,1.151,11.056,6.246,12.921,3.117,1.142,7.38.975,9.692-1.7a2.05,2.05,0,0,0,0-2.829,2.018,2.018,0,0,0-2.828,0c-.1.111-.2.213-.3.322-.066.074-.369.315-.058.079a5.251,5.251,0,0,1-.665.406c-.1.052-.449.165-.085.043-.113.038-.223.078-.337.112a6.622,6.622,0,0,1-.88.2c.4-.063,0,0-.107,0-.155.006-.309.019-.464.022-.281,0-.56-.015-.841-.026-.1,0-.509-.051-.119,0-.123-.016-.246-.038-.368-.06a10.044,10.044,0,0,1-.984-.233c-.258-.075-.509-.164-.76-.257.385.142-.264-.128-.372-.185a6.589,6.589,0,0,1-.663-.417c-.487-.338.161.14-.106-.081-.138-.115-.274-.23-.406-.351-.192-.175-.378-.356-.555-.546-.076-.081-.151-.165-.225-.249,0,0-.343-.42-.156-.18s-.129-.183-.131-.187c-.06-.087-.119-.175-.175-.264a7.81,7.81,0,0,1-.419-.74c-.057-.113-.109-.228-.161-.342.027.06.144.4.032.063-.076-.234-.16-.462-.224-.7-.05-.186-.09-.374-.129-.563-.007-.036-.075-.5-.031-.158.043.331-.01-.163-.014-.228a10.539,10.539,0,0,1,.027-1.33c-.026.449-.011.068.033-.155a7.908,7.908,0,0,1,.2-.805c.054-.176.124-.347.182-.522.14-.425-.164.268-.012.033.06-.094.1-.211.151-.31q.142-.278.306-.541c.071-.116.548-.765.2-.333a8.281,8.281,0,0,1,.849-.918c.075-.07.556-.464.334-.294-.261.2.115-.077.139-.093.119-.078.236-.157.358-.231.2-.124.414-.238.628-.343.025-.012.46-.2.158-.077-.285.118.182-.062.24-.082a7.883,7.883,0,0,1,.788-.226c.176-.04.871-.129.375-.084a12.728,12.728,0,0,1,1.779-.017c.086,0,.392.046-.023-.012q.261.038.519.089c.359.072.712.165,1.063.27a2,2,0,1,0,1.063-3.857Z"/><path class="c" d="M140.952,70.129c-.076-.534-.03-.232,0,.079q.033.393.062.786c.053.748.093,1.5.128,2.248.075,1.642.13,3.289.091,4.932-.007.322-.018.643-.039.964-.012.187-.024.9-.022.364,0,.53-.181,0,.074-.043-.281.052-.819.627-1.112.864-2.011,1.623-3.965,3.315-5.98,4.933a1.945,1.945,0,0,0-.514,1.946c1.249,3.789,2.662,7.525,3.716,11.376a2.023,2.023,0,0,0,2.938,1.2c8.293-4.639,19.882-9.366,19.636-20.621a65.364,65.364,0,0,0-2.318-14.634,35.366,35.366,0,0,0-5.68-12.654c-3.28-4.3-7.191-8.591-12.034-11.146-2.276-1.2-4.3,2.251-2.019,3.454,3.864,2.038,7.016,5.321,9.762,8.666a30.482,30.482,0,0,1,5.578,10.824,74.952,74.952,0,0,1,2.479,12.58c.286,2.382.512,4.948-.422,7.223a13.126,13.126,0,0,1-3.494,4.571c-3.931,3.564-8.923,5.718-13.507,8.283l2.938,1.2c-1.054-3.851-2.467-7.587-3.716-11.376l-.515,1.945c2.155-1.73,4.238-3.548,6.4-5.27,1.5-1.191,1.765-2.354,1.838-4.189a53.685,53.685,0,0,0-.406-9.559,2.012,2.012,0,0,0-2.46-1.4,2.052,2.052,0,0,0-1.4,2.46Z"/><path class="c" d="M150.217,28A21.144,21.144,0,0,0,143.211,5,24.25,24.25,0,0,0,119.6,1.7c-8.2,3.364-13.342,11.02-14.234,19.728a24.629,24.629,0,0,0,10.012,22.638c8.186,5.717,20.023,4.711,27.263-2.074,1.883-1.764-.95-4.588-2.828-2.829a18.211,18.211,0,0,1-20.042,2.863c-6.732-3.363-10.491-10.587-10.532-17.962-.039-7.089,3.334-13.988,9.583-17.57a20.1,20.1,0,0,1,19.62.129,17.182,17.182,0,0,1,7.921,20.312c-.792,2.455,3.068,3.507,3.857,1.063Z"/><path class="c" d="M146.169,29.868c.471.034-.219-.087.2.023.178.046.358.084.534.14.1.033.51.228.207.074.165.084.329.169.486.267.072.044.464.328.2.117a5.005,5.005,0,0,1,.412.373,4.562,4.562,0,0,1,.372.413c-.234-.3.072.133.113.2a4.513,4.513,0,0,1,.26.491c-.159-.356.035.139.058.22a4.159,4.159,0,0,1,.123.55c-.057-.394-.006.159,0,.242,0,.2-.009.39-.02.586-.024.447.068-.153-.042.246-.089.326-.263.956-.321,1.091a6.842,6.842,0,0,1-1.064,1.637,5.886,5.886,0,0,1-1.734,1.338,7.976,7.976,0,0,1-2.148.885,11.555,11.555,0,0,1-1.275.283q-.213.033,0,0c-.106.013-.212.023-.318.032-.245.021-.49.031-.735.037a2,2,0,0,0,0,4c4.771-.117,9.592-2.7,11.213-7.38A7.458,7.458,0,0,0,152,29.223a7.57,7.57,0,0,0-5.827-3.355,2.011,2.011,0,0,0-2,2,2.049,2.049,0,0,0,2,2Z"/><path class="c" d="M119.867,30.308a3.164,3.164,0,0,1-1.29,2.382,2.462,2.462,0,0,1-1.811.342,2.757,2.757,0,0,1-1.993-1.5,3.228,3.228,0,0,1,.8-3.714,2.556,2.556,0,0,1,3.474.191A2.846,2.846,0,0,1,119.867,30.308Z"/><path class="c" d="M132.026,32.791a3.169,3.169,0,0,1-1.29,2.382,2.461,2.461,0,0,1-1.812.343,2.759,2.759,0,0,1-1.992-1.5,3.229,3.229,0,0,1,.8-3.715,2.554,2.554,0,0,1,3.473.192A2.849,2.849,0,0,1,132.026,32.791Z"/><path class="c" d="M131.784,19.355a17.427,17.427,0,0,0,2.686,4.728,10.639,10.639,0,0,0,3.6,2.687,2.151,2.151,0,0,0,1.541.2,2,2,0,0,0,.477-3.656,10.485,10.485,0,0,1-1.914-1.148l.4.313a8.786,8.786,0,0,1-1.543-1.558l.312.405a15.033,15.033,0,0,1-1.787-3.229l.2.477c-.04-.094-.08-.189-.119-.285a2.2,2.2,0,0,0-.919-1.2,2,2,0,0,0-2.737.718,1.928,1.928,0,0,0-.2,1.541Z"/><path class="c" d="M132.7,17.1c-2.283,1.2-6.187,2.135-8.608,1.53l1.2,2.938c.77-1.376,1.61-3.289.323-4.65-1.485-1.572-3.6-.465-5.3,0A37.782,37.782,0,0,1,108.2,18.049c-2.572-.143-2.564,3.857,0,4a43.37,43.37,0,0,0,8.119-.28c1.268-.167,2.527-.383,3.773-.675q.969-.225,1.923-.5c.357-.1.711-.215,1.064-.33.142-.045.284-.092.425-.141.28-.1.283-.1.01,0l-.882-.514.149.135-.514-.882c-.2-.478.174-.436-.054-.035-.133.236-.248.483-.381.72a2.022,2.022,0,0,0,1.2,2.938,14.522,14.522,0,0,0,5.9-.1,19.326,19.326,0,0,0,5.794-1.834c2.278-1.2.259-4.655-2.019-3.454Z"/></svg>