<?xml version="1.0" encoding="utf-8"?>
<!-- Uploaded to: SVG Repo, www.svgrepo.com, Generator: SVG Repo Mixer Tools -->
<svg width="800px" height="800px" viewBox="0 0 1024 1024" class="icon"  version="1.1" xmlns="http://www.w3.org/2000/svg"><path d="M672.768 832.512c12.8 0 23.552-9.216 23.552-20.48V413.184h-46.592v398.848c-0.512 11.264 9.728 20.48 23.04 20.48z" fill="#FFA28D" /><path d="M511.488 832.512c13.312 0 23.04-9.216 23.04-20.48V413.184h-46.592v398.848c0 11.264 10.752 20.48 23.552 20.48z" fill="#FFD561" /><path d="M350.208 832.512c12.8 0 23.04-9.216 23.04-20.48V413.184h-46.08v398.848c0 11.264 10.752 20.48 23.04 20.48z" fill="#FFA28D" /><path d="M921.088 182.272h-191.488V98.816c0-18.944-17.408-34.304-38.912-34.304h-358.4c-21.504 0-38.912 15.872-39.424 34.304v83.968H102.4c-21.504 0-38.912 15.36-38.912 34.304V378.88c0 18.944 17.408 34.304 38.912 34.304h57.344v512.512c0 18.944 16.896 34.304 38.4 34.304h626.688c21.504 0 38.912-15.872 38.912-34.304V413.184h57.344c20.992 0 38.4-15.36 38.4-34.304V216.576c0-18.432-17.408-34.304-38.4-34.304zM370.688 133.12h281.088v43.008H370.688V133.12z m414.72 758.272H237.056V413.184H785.92v478.208z m96.256-546.816H140.8V251.392h740.864v93.184z" fill="#5FFFBA" /></svg>