<?xml version="1.0" ?>
<!DOCTYPE svg  PUBLIC '-//W3C//DTD SVG 1.1//EN'  'http://www.w3.org/Graphics/SVG/1.1/DTD/svg11.dtd'>
<!-- Uploaded to: SVG Repo, www.svgrepo.com, Generator: SVG Repo Mixer Tools -->
<svg fill="#000000" width="800px" height="800px" viewBox="0 0 250 250" style="fill-rule:evenodd;clip-rule:evenodd;stroke-linecap:round;stroke-linejoin:round;stroke-miterlimit:1.5;" version="1.1" xml:space="preserve" xmlns="http://www.w3.org/2000/svg" xmlns:serif="http://www.serif.com/" xmlns:xlink="http://www.w3.org/1999/xlink">
<g transform="matrix(-0.971532,0.925957,0.925957,0.971532,103.921,-124.31)">
<path d="M18.484,164.285C12.601,165.666 9.169,165.517 9.169,157.557L23.169,139.182C30.419,128.73 37.154,124.244 49.856,119.244L152.981,90.494C172.433,86.244 191.342,88.408 202.342,106.86L228.919,156.807C229.338,164.104 227.307,164.92 220.478,164.994L196.342,117.86C185.092,98.658 172.433,97.244 152.981,101.494L52.356,130.244C39.654,135.244 36.419,139.73 29.169,150.182L18.484,164.285Z" style="fill:rgb(237,68,68);stroke:black;stroke-width:5.59px;"/>
<path d="M198.684,122.433C191.403,122.93 184.427,123.712 187.919,134.307L200.419,157.307C205.686,163.343 210.399,164.961 219.669,164.994L217.183,159.846L200.419,157.307" style="fill:none;stroke:black;stroke-width:5.59px;"/>
<g transform="matrix(1,0,0,1,0,2)">
<path d="M114.547,161.557L113.453,161.557C113.286,159.833 112.698,158.557 112,158.557C111.302,158.557 110.714,159.833 110.547,161.557L109.453,161.557C109.286,159.833 108.698,158.557 108,158.557C107.302,158.557 106.714,159.833 106.547,161.557L105.453,161.557C105.286,159.833 104.698,158.557 104,158.557C103.302,158.557 102.714,159.833 102.547,161.557L101.453,161.557C101.286,159.833 100.698,158.557 100,158.557C99.302,158.557 98.714,159.833 98.547,161.557L97.453,161.557C97.286,159.833 96.698,158.557 96,158.557C95.302,158.557 94.714,159.833 94.547,161.557L93.453,161.557C93.286,159.833 92.698,158.557 92,158.557C91.302,158.557 90.714,159.833 90.547,161.557L89.453,161.557C89.286,159.833 88.698,158.557 88,158.557C87.302,158.557 86.714,159.833 86.547,161.557L85.453,161.557C85.286,159.833 84.698,158.557 84,158.557C83.302,158.557 82.714,159.833 82.547,161.557L81.453,161.557C81.286,159.833 80.698,158.557 80,158.557C79.302,158.557 78.714,159.833 78.547,161.557L77.453,161.557L77.358,160.857L77.205,160.176L76.919,159.396L76.682,158.994L76.498,158.783L76.348,158.665L76.225,158.602L76.114,158.568L76,158.557L75.991,158.557L75.878,158.57L75.762,158.607L75.625,158.683L75.45,158.835L75.207,159.162L74.906,159.823L74.73,160.43L74.599,161.125L74.547,161.557L73.453,161.557C73.286,159.833 72.698,158.557 72,158.557C71.302,158.557 70.714,159.833 70.547,161.557L69.453,161.557C69.286,159.833 68.698,158.557 68,158.557C67.302,158.557 66.714,159.833 66.547,161.557L65.453,161.557C65.286,159.833 64.698,158.557 64,158.557C63.302,158.557 62.714,159.833 62.547,161.557L61.453,161.557C61.286,159.833 60.698,158.557 60,158.557C59.302,158.557 58.714,159.833 58.547,161.557L57.453,161.557C57.286,159.833 56.698,158.557 56,158.557C55.302,158.557 54.714,159.833 54.547,161.557L53.453,161.557C53.286,159.833 52.698,158.557 52,158.557C51.302,158.557 50.714,159.833 50.547,161.557L49.453,161.557C49.286,159.833 48.698,158.557 48,158.557C47.302,158.557 46.714,159.833 46.547,161.557L45.453,161.557C45.286,159.833 44.698,158.557 44,158.557C43.302,158.557 42.714,159.833 42.547,161.557L41.453,161.557C41.286,159.833 40.698,158.557 40,158.557C39.302,158.557 38.714,159.833 38.547,161.557L37.453,161.557C37.286,159.833 36.698,158.557 36,158.557C35.302,158.557 34.714,159.833 34.547,161.557L33.453,161.557C33.286,159.833 32.698,158.557 32,158.557C31.302,158.557 30.714,159.833 30.547,161.557L29.453,161.557C29.286,159.833 28.698,158.557 28,158.557C27.302,158.557 26.714,159.833 26.547,161.557L21.669,161.557L25.669,157.557L198.919,157.557L205.919,161.557L193.453,161.557C193.286,159.833 192.698,158.557 192,158.557C191.302,158.557 190.714,159.833 190.547,161.557L189.453,161.557C189.286,159.833 188.698,158.557 188,158.557C187.302,158.557 186.714,159.833 186.547,161.557L185.453,161.557C185.286,159.833 184.698,158.557 184,158.557C183.302,158.557 182.714,159.833 182.547,161.557L181.453,161.557C181.286,159.833 180.698,158.557 180,158.557C179.302,158.557 178.714,159.833 178.547,161.557L177.453,161.557C177.286,159.833 176.698,158.557 176,158.557C175.302,158.557 174.714,159.833 174.547,161.557L173.453,161.557C173.286,159.833 172.698,158.557 172,158.557C171.302,158.557 170.714,159.833 170.547,161.557L169.453,161.557C169.286,159.833 168.698,158.557 168,158.557C167.302,158.557 166.714,159.833 166.547,161.557L165.453,161.557L165.358,160.857L165.205,160.176L164.919,159.396L164.682,158.994L164.498,158.783L164.348,158.665L164.225,158.602L164.114,158.568L164,158.557L163.991,158.557L163.878,158.57L163.762,158.607L163.625,158.683L163.45,158.835L163.207,159.162L162.906,159.823L162.73,160.43L162.599,161.125L162.547,161.557L161.453,161.557C161.286,159.833 160.698,158.557 160,158.557C159.302,158.557 158.714,159.833 158.547,161.557L157.453,161.557C157.286,159.833 156.698,158.557 156,158.557C155.302,158.557 154.714,159.833 154.547,161.557L153.453,161.557C153.286,159.833 152.698,158.557 152,158.557C151.302,158.557 150.714,159.833 150.547,161.557L149.453,161.557C149.286,159.833 148.698,158.557 148,158.557C147.302,158.557 146.714,159.833 146.547,161.557L145.453,161.557C145.286,159.833 144.698,158.557 144,158.557C143.302,158.557 142.714,159.833 142.547,161.557L141.453,161.557C141.286,159.833 140.698,158.557 140,158.557C139.302,158.557 138.714,159.833 138.547,161.557L137.453,161.557C137.286,159.833 136.698,158.557 136,158.557C135.302,158.557 134.714,159.833 134.547,161.557L133.453,161.557C133.286,159.833 132.698,158.557 132,158.557C131.302,158.557 130.714,159.833 130.547,161.557L129.453,161.557C129.286,159.833 128.698,158.557 128,158.557C127.302,158.557 126.714,159.833 126.547,161.557L125.453,161.557C125.286,159.833 124.698,158.557 124,158.557C123.302,158.557 122.714,159.833 122.547,161.557L121.453,161.557C121.286,159.833 120.698,158.557 120,158.557C119.302,158.557 118.714,159.833 118.547,161.557L117.453,161.557C117.286,159.833 116.698,158.557 116,158.557C115.302,158.557 114.714,159.833 114.547,161.557Z" style="stroke:black;stroke-width:1.49px;stroke-linecap:square;"/>
</g>
<path d="M199.793,156.432L26.543,156.432" style="fill:none;stroke:black;stroke-width:5.22px;"/>
</g>
</svg>