<?xml version="1.0" ?>
<!-- Uploaded to: SVG Repo, www.svgrepo.com, Generator: SVG Repo Mixer Tools -->
<svg fill="#000000" width="800px" height="800px" viewBox="0 0 100 100" version="1.1" xml:space="preserve" xmlns="http://www.w3.org/2000/svg" xmlns:xlink="http://www.w3.org/1999/xlink">
<g id="store"/>
<g id="groceries">
<g>
<path d="M80.5,36.1c-0.3-0.2-0.7-0.2-1,0l-0.5,0.4c-0.4-3.7-2.2-7-5-9.3c0-0.1,0-0.2,0-0.2c0.1-0.5,2.5-1.6,5.2-2    c0.4-0.1,0.7-0.3,0.8-0.7c0.1-0.4,0-0.7-0.2-1l-3-3c-0.2-0.2-0.6-0.3-0.9-0.3c-2.1,0.5-3.4,1.7-4.3,2.9c0-5.3-3.9-7.7-3.9-7.8    c-0.3-0.2-0.6-0.2-0.9-0.1c-0.3,0.1-0.5,0.4-0.6,0.7c-1.1,3.8-0.2,6.6,0.9,8.4C66.5,24.1,66,24,65.5,24c-0.9-2.8-2.9-5-5.5-6.2    c1.4-0.7,3.2-1.8,4.8-3.4c3.3-3.3,4.4-7.3,4.5-7.5c0.1-0.3,0-0.7-0.3-1c-0.3-0.3-0.6-0.4-1-0.3c-0.2,0-4.2,1.2-7.5,4.5    c-1.7,1.7-2.8,3.6-3.5,5.1c-0.7-1.5-1.8-3.4-3.5-5.1C50.2,7,46.1,5.8,46,5.7c-0.4-0.1-0.7,0-1,0.3c-0.3,0.3-0.4,0.6-0.3,1    c0,0.1,0.2,0.7,0.6,1.6C42.8,5.8,39.1,4,35,4c-7.7,0-14,6.3-14,14v18.5l-0.4-0.3c-0.3-0.2-0.7-0.2-1-0.1C19.2,36.3,19,36.6,19,37    v58c0,0.6,0.4,1,1,1h60c0.6,0,1-0.4,1-1V37C81,36.6,80.8,36.3,80.5,36.1z M75.7,22.1l1.3,1.3c-1.8,0.5-4,1.3-4.7,2.6    c-0.1,0-0.1-0.1-0.2-0.1C72.4,25.1,73.3,23,75.7,22.1z M67.6,17.9c1,1.1,2.2,3.1,1.8,6.3C68.4,23,67.2,21,67.6,17.9z M77,37.8    l-3,2l-5.5-3.6c-0.3-0.2-0.8-0.2-1.1,0l-2,1.4C65.8,32.9,66,29,66,27c0-0.3,0-0.6,0-1C72.1,26.5,76.9,31.6,77,37.8z M64,27    c0,2.1-0.3,6.7-0.7,12L62,39.8l-5.4-3.6c-0.3-0.2-0.8-0.2-1.1,0L50,39.8l-1-0.7c0,0,0-0.1,0-0.1V23.2c1.4-2.6,4.1-4.2,7-4.2    C60.4,19,64,22.6,64,27z M61.9,11.6c1.5-1.5,3.3-2.5,4.6-3.2c-0.6,1.3-1.6,3.1-3.2,4.6c-1.5,1.5-3.3,2.5-4.6,3.2    C59.4,14.9,60.4,13.2,61.9,11.6z M52.1,11.6c1.5,1.5,2.5,3.3,3.2,4.6c-1.3-0.6-3.1-1.6-4.6-3.2c-1.5-1.5-2.5-3.3-3.2-4.6    C48.8,9.1,50.5,10.1,52.1,11.6z M49.2,14.5c1.3,1.3,2.7,2.2,3.9,2.9c-1.6,0.5-3,1.3-4.2,2.5V18c0-1.6-0.3-3.2-0.8-4.7    C48.5,13.7,48.8,14.1,49.2,14.5z M23,18c0-6.6,5.4-12,12-12s12,5.4,12,12v19.8l-2.5-1.6c-0.3-0.2-0.8-0.2-1.1,0L38,39.8l-5.4-3.6    c-0.3-0.2-0.8-0.2-1.1,0L26,39.8l-3-2V18z M79,94H21V38.9l4.4,3c0.3,0.2,0.8,0.2,1.1,0l5.4-3.6l5.4,3.6c0.3,0.2,0.8,0.2,1.1,0    l5.4-3.6l5.4,3.6c0.3,0.2,0.8,0.2,1.1,0l5.4-3.6l5.4,3.6c0.3,0.2,0.8,0.2,1.1,0l5.4-3.6l5.5,3.6c0.3,0.2,0.8,0.2,1.1,0l4.5-3V94z"/>
<path d="M35,23c2.3,0,10-0.2,10-3s-7.7-3-10-3s-10,0.2-10,3S32.7,23,35,23z M35,19c3.9,0,6.6,0.6,7.6,1c-1,0.4-3.7,1-7.6,1    s-6.6-0.6-7.6-1C28.4,19.6,31.1,19,35,19z"/>
<path d="M45,33c0-2.8-7.7-3-10-3s-10,0.2-10,3s7.7,3,10,3S45,35.8,45,33z M35,32c3.9,0,6.6,0.6,7.6,1c-1,0.4-3.7,1-7.6,1    s-6.6-0.6-7.6-1C28.4,32.6,31.1,32,35,32z"/>
<path d="M57,28h5c0.6,0,1-0.4,1-1s-0.4-1-1-1h-5c-0.6,0-1,0.4-1,1S56.4,28,57,28z"/>
<path d="M57,33h-6c-0.6,0-1,0.4-1,1s0.4,1,1,1h6c0.6,0,1-0.4,1-1S57.6,33,57,33z"/>
<path d="M73,52H27c-0.6,0-1,0.4-1,1v26c0,0.6,0.4,1,1,1h46c0.6,0,1-0.4,1-1V53C74,52.4,73.6,52,73,52z M72,78H28V54h44V78z"/>
</g>
</g>
<g id="fruits"/>
<g id="bakery"/>
<g id="hygiene_product"/>
<g id="detergent"/>
<g id="cooking_oil"/>
<g id="snacks"/>
<g id="canned_food"/>
<g id="wheat_flour"/>
<g id="milk_powder"/>
<g id="coffee_powder"/>
<g id="tea_bag"/>
<g id="meat"/>
<g id="chicken"/>
<g id="cart"/>
<g id="sausage"/>
<g id="egg"/>
<g id="drink"/>
<g id="vegetable"/>
</svg>