<?xml version="1.0" encoding="utf-8"?>
<!-- Uploaded to: SVG Repo, www.svgrepo.com, Generator: SVG Repo Mixer Tools -->
<svg width="800px" height="800px" viewBox="0 -42.69 404.953 404.953" xmlns="http://www.w3.org/2000/svg"><defs><style>.a{fill:#ffffff;}.b{fill:#7a7473;}.c{fill:#211715;}.d{fill:#bdbab9;}</style></defs><path class="a" d="M205.918,236.528c-.422,0-108.3.356-124.14.356a2.845,2.845,0,0,0-2.846,2.844c0,9.457-.7,58.346-.719,64.522-.009,3,.311,6.567,5.338,6.567,39.518,0,83.248.573,122.761-.111,1.732-.03,3.489-.712,3.489-3.282,0-6.523.05-63.847.05-67.508A3.712,3.712,0,0,0,205.918,236.528Z"/><path class="b" d="M162.391,258.722c-3.493,0-65.057.223-70.092.222,0,12.34-.131,33.8-.133,39.42,8.632,0,66.033-.057,70.162-.055C162.329,292.5,162.391,259.3,162.391,258.722Z"/><path class="c" d="M162.391,256.722c-7.946.009-15.892.05-23.838.077q-18.01.06-36.022.118c-3.41.011-6.821.027-10.232.027a2.03,2.03,0,0,0-2,2c0,11.214-.07,22.429-.115,33.643q-.012,2.888-.018,5.777a2.03,2.03,0,0,0,2,2q13.212-.006,26.422-.021,17.174-.015,34.347-.028,4.7,0,9.393-.006a2.028,2.028,0,0,0,2-2q0-17.553.055-35.107,0-2.24.008-4.48c0-2.573-4-2.578-4,0q-.007,16.207-.055,32.415,0,3.585-.008,7.172l2-2q-11.6-.006-23.2.017l-35.244.029q-5.858,0-11.714.009l2,2c.005-10.058.087-20.117.117-30.175q.014-4.623.016-9.245l-2,2c8.313,0,16.626-.046,24.939-.074l35.712-.119c3.147-.01,6.294-.025,9.441-.029C164.965,260.72,164.969,256.72,162.391,256.722Z"/><path class="c" d="M162.844,246.405c-7.945.008-15.891.049-23.837.076q-18.011.06-36.022.119c-3.411.01-6.821.026-10.232.026-2.574,0-2.578,4,0,4,8.313,0,16.626-.046,24.938-.074l35.713-.119c3.147-.01,6.294-.025,9.44-.028,2.574,0,2.579-4,0-4Z"/><path class="d" d="M201.323,267.158c-.817,0-15.5.068-16.682.068,0,1.091-.031,10.014-.031,11.732,2.019,0,15.732-.018,16.7-.017C201.308,277.166,201.323,267.733,201.323,267.158Z"/><path class="c" d="M99.493,311.378v6.128c-1.024,0-9.227.062-10.766.063,0-2.627,0-6.191,0-6.191"/><path class="c" d="M199.337,311.378v6.128c-1.025,0-9.228.062-10.766.063,0-2.627,0-6.191,0-6.191"/><path class="c" d="M188.53,244.813a6.651,6.651,0,0,0-3.672,1.03,6,6,0,0,0-2.348,3.139,6.448,6.448,0,0,0,1.811,6.829,6.9,6.9,0,0,0,7.738.535,6.431,6.431,0,0,0,2.643-6.78,5.606,5.606,0,0,0-1.863-3.275,6.724,6.724,0,0,0-4.309-1.478,2,2,0,1,0,0,4c.247,0,.507.054.752.044-.516.022-.268-.037-.07.006.074.016.147.033.219.052.106.028.21.06.313.095.222.077.289.228-.088-.045.155.113.358.195.524.295.322.193-.37-.331-.095-.079.059.054.119.1.177.161s.112.112.165.171c.139.155.163.342-.076-.11.074.139.178.264.253.4.045.083.079.176.127.258-.309-.526-.089-.215-.028-.021a4.549,4.549,0,0,1,.123.486c.037.188-.007.454-.008-.124,0,.1.021.212.026.316.011.185.012.37,0,.554a2.758,2.758,0,0,0-.025.337c-.045-.516.047-.305.007-.1a4.469,4.469,0,0,1-.165.61c-.076.219-.225.283.049-.1a1.678,1.678,0,0,0-.09.18c-.046.089-.1.175-.15.259-.1.156-.3.311.084-.082-.139.141-.257.3-.405.431s-.337.153.095-.062c-.072.036-.14.1-.209.141-.161.1-.339.169-.5.265.466-.277.259-.108.078-.049q-.1.033-.21.063c-.109.029-.218.055-.329.077-.551.109.318,0-.051.009-.209.008-.414.023-.624.019-.125,0-.249-.015-.374-.021-.438-.02.475.105.057.007-.186-.043-.371-.079-.554-.137-.1-.032-.207-.087-.311-.111.517.12.255.11.089.022-.092-.049-.183-.1-.271-.158-.16-.1-.3-.308.07.074-.118-.121-.257-.22-.374-.343-.069-.072-.128-.16-.2-.227.375.348.185.247.075.077s-.185-.364-.291-.537c.279.451.114.28.051.092-.028-.084-.052-.168-.075-.253s-.044-.172-.061-.259c-.044-.211.03-.417,0,.1.009-.182-.031-.374-.031-.559,0-.117,0-.233.011-.35.036-.559-.079.316,0-.026a5.844,5.844,0,0,1,.155-.623c.059-.18.225-.382-.054.091.051-.086.086-.184.134-.273s.1-.175.153-.259c.278-.432-.244.251-.017.008.136-.146.272-.283.42-.418.281-.255-.413.268-.086.073.1-.061.2-.127.3-.184a1.965,1.965,0,0,0,.229-.116c-.319.129-.382.156-.187.079.067-.025.134-.048.2-.07a6.265,6.265,0,0,1,.646-.157c.414-.086-.5.028-.069.013.162-.006.324-.019.487-.02a2,2,0,0,0,0-4Z"/><path class="c" d="M205.918,234.528c-5.847.006-11.694.038-17.541.057l-39.015.122q-20.9.065-41.792.122-8.086.022-16.174.04-2.9.007-5.8.011a27.8,27.8,0,0,0-4.681.095,4.929,4.929,0,0,0-3.982,4.951c-.016.85-.006,1.7-.011,2.553q-.026,3.975-.072,7.952-.114,10.96-.259,21.92-.135,10.778-.269,21.555-.046,3.744-.086,7.488a29.223,29.223,0,0,0,.244,6.105,6.306,6.306,0,0,0,3.292,4.529c2.5,1.224,5.611.789,8.3.792q9.323.009,18.645.048,19.107.071,38.213.15,19.221.053,38.443-.046,9.206-.062,18.41-.193c2.458-.037,5.639.442,7.823-.959,1.675-1.074,2.177-2.9,2.191-4.783.083-11.116.015-22.235.024-33.351q.014-16.548.026-33.1a5.852,5.852,0,0,0-5.933-6.061c-2.574-.1-2.57,3.9,0,4,2.133.082,1.933,1.51,1.932,3.093l0,5.414-.015,18.026q-.015,18.908-.029,37.816c0,1.454.015,2.91,0,4.365,0,.435.013.914-.32,1.192-.657.548-2.207.29-2.975.3q-4.325.071-8.651.122-18.463.219-36.927.183c-24.675-.009-49.349-.216-74.023-.224-1.654,0-3.692.145-4.332-1.464a9.447,9.447,0,0,1-.359-3.455c.008-1.73.031-3.461.05-5.191q.106-9.381.231-18.762c.163-12.912.374-25.826.433-38.739,0-.787-.268-2.084.729-2.317a8.164,8.164,0,0,1,1.7-.006q2.373,0,4.746-.007,7.091-.014,14.181-.033,19.632-.051,39.263-.112,20.008-.06,40.018-.125l23.212-.074,1.143,0C208.492,238.526,208.5,234.526,205.918,234.528Z"/><path class="c" d="M201.323,265.158c-4.725.008-9.449.041-14.174.059-.836,0-1.672.009-2.508.009a2.028,2.028,0,0,0-2,2c0,3.911-.03,7.821-.031,11.732a2.028,2.028,0,0,0,2,2c5.566,0,11.132-.02,16.7-.017a2.029,2.029,0,0,0,2-2c0-3.927.014-7.855.015-11.783,0-2.574-4-2.578-4,0,0,3.928-.014,7.856-.015,11.783l2-2c-5.566,0-11.132.014-16.7.017l2,2c0-3.911.03-7.821.031-11.732l-2,2c4.787,0,9.574-.039,14.361-.059.774,0,1.547-.008,2.321-.009C203.9,269.154,203.9,265.154,201.323,265.158Z"/><path class="c" d="M185.376,290.926c5.055,0,10.11-.021,15.165-.017,2.574,0,2.578-4,0-4-5.055,0-10.11.014-15.165.017-2.574,0-2.579,4,0,4Z"/><path class="c" d="M185.376,298.637c5.055,0,10.11-.021,15.165-.017,2.574,0,2.578-4,0-4-5.055,0-10.11.013-15.165.017-2.574,0-2.579,4,0,4Z"/><path class="c" d="M177.839,309.669q.03-28.371.059-56.743,0-8.124,0-16.248c0-2.574-4-2.578-4,0q0,28.373-.045,56.743-.011,8.124-.019,16.248c0,2.574,4,2.578,4,0Z"/><path class="c" d="M201.294,252.3c-.716,0-1.43.03-2.146.031a2.057,2.057,0,0,0-2,2l.072.531a2,2,0,0,0,.514.883,2.08,2.08,0,0,0,1.414.586c.716,0,1.43-.03,2.146-.031a2.057,2.057,0,0,0,2-2l-.072-.532a2,2,0,0,0-.514-.882,2.08,2.08,0,0,0-1.414-.586Z"/><path class="c" d="M201.294,245.493c-.716,0-1.43.03-2.146.03a2.059,2.059,0,0,0-2,2l.072.532a2,2,0,0,0,.514.883,2.075,2.075,0,0,0,1.414.585c.716,0,1.43-.029,2.146-.03a2.222,2.222,0,0,0,1.414-.586,2.231,2.231,0,0,0,.586-1.414l-.072-.532a1.99,1.99,0,0,0-.514-.882,2.08,2.08,0,0,0-1.414-.586Z"/><path class="c" d="M97.493,311.378v6.128l2-2c-3.588.013-7.177.061-10.766.063l2,2q0-3.1,0-6.191a2,2,0,0,0-4,0q0,3.1,0,6.191a2.03,2.03,0,0,0,2,2c3.589,0,7.178-.05,10.766-.063a2.029,2.029,0,0,0,2-2v-6.128a2,2,0,0,0-4,0Z"/><path class="c" d="M197.337,311.378v6.128l2-2c-3.589.013-7.178.061-10.766.063l2,2q0-3.1,0-6.191a2,2,0,0,0-4,0q0,3.1,0,6.191a2.028,2.028,0,0,0,2,2c3.588,0,7.177-.05,10.766-.063a2.03,2.03,0,0,0,2-2v-6.128a2,2,0,0,0-4,0Z"/><path class="a" d="M266.413,293.022a75.239,75.239,0,0,1-1.889-12.22c-.612-10.375-.6-19.84,1.864-29.936,2.385-8.468,5.835-14.287,12.892-18.628,4.31-2.651,15.051-4.866,30.4-4.768,15.359-.1,27.141,2.708,31.451,5.36,7.057,4.341,9.469,9.568,11.854,18.036,2.466,10.1,2.477,19.561,1.864,29.936-.33,5.6-1.943,14.386-4.22,19.51-3.777,8.5-8.884,11.52-17.988,13.422a108.368,108.368,0,0,1-45.909,0c-9.105-1.9-14.212-4.922-17.989-13.422A43.8,43.8,0,0,1,266.413,293.022Z"/><path class="b" d="M273.775,307.869a23.04,23.04,0,0,1-4.931-7.344l.819.279c6.693,4.359,27.952,5.724,40.638,5.673,12.684.05,32.988-2.145,39.2-6.088l1.436-.82c-.1.257-.2.5-.31.743-3.777,8.5-8.884,11.52-17.988,13.422a108.368,108.368,0,0,1-45.909,0C281.089,312.555,276.981,310.946,273.775,307.869Z"/><path class="d" d="M309.687,256.908c-5.627.016-11.426-.342-13.915.066a.663.663,0,0,0-.589.636c.009,1.059.17,4.588,1.684,5.764,1.12.87,6,1.648,12.816,1.734,6.822-.086,11.7-.863,12.824-1.734,1.514-1.176,1.675-4.705,1.684-5.764a.662.662,0,0,0-.589-.636C321.113,256.566,315.314,256.924,309.687,256.908Z"/><path class="c" d="M264.459,250.335a90.9,90.9,0,0,0-2.239,23.3,94.022,94.022,0,0,0,2.222,19.737c1.3,5.472,3.314,11,7.207,15.187,3.643,3.915,8.721,5.817,13.832,6.947a110.071,110.071,0,0,0,43.046,1.058c5.652-1,11.74-2.087,16.459-5.593,4.381-3.253,7.088-8.128,8.745-13.247a78.9,78.9,0,0,0,3.336-21.252,95.273,95.273,0,0,0-2.152-26.139c-.6-2.5-4.46-1.443-3.857,1.063a85.86,85.86,0,0,1,2.106,21.769,90.14,90.14,0,0,1-2,18.764c-1.134,4.9-2.764,10.036-6.268,13.8-3.279,3.523-7.839,5.007-12.425,6a105.274,105.274,0,0,1-40.564.98c-5.2-.925-10.907-1.812-15.273-5.021-3.8-2.794-6-7.312-7.351-11.714A77.359,77.359,0,0,1,266.29,276a90.38,90.38,0,0,1,2.027-24.6c.6-2.5-3.255-3.569-3.858-1.063Z"/><path class="c" d="M268.317,251.4c1.921-6.745,5.064-12.867,11.046-16.841,4.337-2.881,10.2-3.77,15.557-4.375a127.8,127.8,0,0,1,26.81-.172,77.882,77.882,0,0,1,10.849,1.805,30.275,30.275,0,0,1,6.873,2.36,20.047,20.047,0,0,1,7.306,6.62,38.024,38.024,0,0,1,4.3,10.6c.7,2.473,4.561,1.422,3.857-1.063a45.753,45.753,0,0,0-4.064-10.517,24.376,24.376,0,0,0-7.2-7.727c-5.1-3.585-11.727-4.75-17.773-5.583a127.479,127.479,0,0,0-28.634-.56c-6.116.548-13.061,1.26-18.536,4.311-7.675,4.276-11.908,11.878-14.244,20.076-.706,2.48,3.152,3.538,3.858,1.063Z"/><path class="c" d="M274.415,250.116a58.482,58.482,0,0,1,12.361-3.2,142.313,142.313,0,0,1,14.978-1.673,135.562,135.562,0,0,1,28.816,1.347,63.045,63.045,0,0,1,14.389,3.53,2.013,2.013,0,0,0,2.461-1.4,2.05,2.05,0,0,0-1.4-2.46,59.7,59.7,0,0,0-12.875-3.29,154.035,154.035,0,0,0-15.626-1.736,140.319,140.319,0,0,0-29.564,1.463,63.533,63.533,0,0,0-14.606,3.563,2.065,2.065,0,0,0-1.4,2.46,2.012,2.012,0,0,0,2.46,1.4Z"/><path class="c" d="M265.105,250.38c1.91,6.725,7.178,12.682,12.446,17.065,5.861,4.878,13.01,7.635,20.44,9.106a59.28,59.28,0,0,0,20.453.533c7.381-1.1,15.069-3.408,21.138-7.883a47.609,47.609,0,0,0,9.025-8.7,29.715,29.715,0,0,0,5.662-10.118c.7-2.481-3.154-3.54-3.857-1.063-1.722,6.063-6.687,11.364-11.417,15.3-5.38,4.478-12.16,6.842-18.959,8.156a53.393,53.393,0,0,1-18.136.418c-6.869-1.04-13.954-3.053-19.667-7.138a43.465,43.465,0,0,1-8.157-7.789,25.609,25.609,0,0,1-5.114-8.947c-.7-2.473-4.562-1.422-3.857,1.063Z"/><path class="c" d="M268.653,302.531c3.8,2.42,8.69,3.24,13.056,3.945a161.967,161.967,0,0,0,18.275,1.77,174.4,174.4,0,0,0,34.993-1.7c5.132-.8,11.038-1.637,15.536-4.431,2.183-1.356.177-4.817-2.019-3.454-3.492,2.169-8.332,2.959-12.522,3.689a149.328,149.328,0,0,1-17.676,1.91,175.21,175.21,0,0,1-33.34-1.314c-4.728-.659-10.326-1.348-14.284-3.87-2.177-1.388-4.186,2.073-2.019,3.454Z"/><path class="c" d="M296.186,245.428c.851,2.014,3.659,3.407,5.525,4.231,2.42,1.068,5.2,1.036,7.8,1.036s5.4.036,7.832-1.036c1.867-.823,4.674-2.217,5.525-4.231a2.071,2.071,0,0,0-.718-2.737,2.013,2.013,0,0,0-2.736.718c-.147.347.019.136-.28.426a7.389,7.389,0,0,1-.8.688,13.259,13.259,0,0,1-2.786,1.585c-1.851.737-4.083.587-6.035.587-1.9,0-4.051.136-5.866-.541a13.156,13.156,0,0,1-2.782-1.536,7,7,0,0,1-.857-.7,3.964,3.964,0,0,1-.313-.335c.2.245-.025-.118-.05-.176a2.012,2.012,0,0,0-2.736-.718,2.055,2.055,0,0,0-.718,2.737Z"/><path class="c" d="M309.687,254.908c-3.443,0-6.885-.145-10.328-.129-2.4.011-6.109-.261-6.172,3.06a10.57,10.57,0,0,0,1.6,6.2c1.161,1.567,3.091,1.969,4.914,2.28a61.744,61.744,0,0,0,18.209.257c1.767-.231,3.852-.412,5.419-1.355,2.077-1.251,2.57-3.961,2.783-6.178.131-1.352.161-2.886-1.194-3.678a8.256,8.256,0,0,0-3.836-.577c-3.8-.089-7.6.12-11.4.116-2.574,0-2.578,4,0,4,2.711,0,5.422-.074,8.133-.114,1.088-.016,2.177-.027,3.264,0a8.175,8.175,0,0,1,2.3.232l-.882-.514.206.224-.514-.882c-.056-.221-.016.375-.021.471-.017.33-.039.663-.081.991a7.88,7.88,0,0,1-.4,1.747,2.48,2.48,0,0,1-.4.762c.178-.2.067-.1-.086.009-.243.171.3-.085-.177.068-.222.071-.445.139-.67.2a56.917,56.917,0,0,1-21.334,0c-.2-.052-.389-.115-.584-.17-.112-.037-.223-.076-.332-.118q.351.155.07.021c-.154-.108-.265-.211-.086-.009a2.438,2.438,0,0,1-.4-.762,7.77,7.77,0,0,1-.4-1.747c-.043-.328-.064-.661-.082-.991,0-.1.036-.692-.02-.471l-.515.882.207-.224-.883.514a7.325,7.325,0,0,1,2.128-.227c1.143-.032,2.288-.019,3.431,0,2.711.04,5.421.117,8.133.114C312.26,258.9,312.265,254.905,309.687,254.908Z"/><path class="c" d="M286.437,257.235a2.139,2.139,0,0,0-2.3,2.256,2.164,2.164,0,0,0,2.3,2.256,2.137,2.137,0,0,0,2.3-2.256A2.11,2.11,0,0,0,286.437,257.235Z"/><path class="c" d="M286.437,255.235a4.461,4.461,0,0,0-2.429.676,4.213,4.213,0,0,0-1.68,2.232,4.525,4.525,0,0,0-.194,1.254,4.6,4.6,0,0,0,.148,1.264,3.924,3.924,0,0,0,1.251,2.031,4.644,4.644,0,0,0,1.473.836,4.774,4.774,0,0,0,3.783-.405,3.674,3.674,0,0,0,.9-.751,4.653,4.653,0,0,0,.827-1.439,4.45,4.45,0,0,0,.22-1.229,5.1,5.1,0,0,0-.106-1.25,3.907,3.907,0,0,0-.45-1.193,3.408,3.408,0,0,0-.783-.964,4.484,4.484,0,0,0-1.5-.847,4.7,4.7,0,0,0-1.462-.215,2.055,2.055,0,0,0-1.415.586,2,2,0,0,0,1.415,3.414,3.605,3.605,0,0,1,.464.032l-.532-.071a2.637,2.637,0,0,1,.624.172l-.478-.2a2.285,2.285,0,0,1,.415.24l-.405-.313a2.1,2.1,0,0,1,.359.358l-.313-.405a2.22,2.22,0,0,1,.253.441l-.2-.478a2.64,2.64,0,0,1,.164.617l-.072-.531a3.143,3.143,0,0,1,0,.757l.071-.532a2.562,2.562,0,0,1-.175.65l.2-.477a2.3,2.3,0,0,1-.24.413l.313-.405a2.147,2.147,0,0,1-.37.374l.405-.313a2.286,2.286,0,0,1-.473.27l.477-.2a2.7,2.7,0,0,1-.632.163l.532-.071a3.341,3.341,0,0,1-.787,0l.531.071a2.677,2.677,0,0,1-.639-.174l.478.2a2.349,2.349,0,0,1-.434-.252l.4.313A2.216,2.216,0,0,1,286,259.5l.313.4a2.3,2.3,0,0,1-.27-.468l.2.477a2.571,2.571,0,0,1-.159-.6l.071.532a3.015,3.015,0,0,1,0-.723l-.072.532a2.63,2.63,0,0,1,.158-.605l-.2.478a2.219,2.219,0,0,1,.265-.464l-.312.405a2.113,2.113,0,0,1,.373-.371l-.405.313a2.308,2.308,0,0,1,.422-.245l-.478.2a2.657,2.657,0,0,1,.678-.182l-.532.072a3.537,3.537,0,0,1,.385-.024,2.071,2.071,0,0,0,1.414-.586,2,2,0,0,0-1.414-3.414Z"/><path class="c" d="M333.074,257.235a2.14,2.14,0,0,0-2.3,2.256,2.164,2.164,0,0,0,2.305,2.256,2.137,2.137,0,0,0,2.3-2.256A2.111,2.111,0,0,0,333.074,257.235Z"/><path class="c" d="M333.074,255.235a4.46,4.46,0,0,0-2.428.676,4.22,4.22,0,0,0-1.681,2.232,4.561,4.561,0,0,0-.193,1.254,4.642,4.642,0,0,0,.147,1.264,3.937,3.937,0,0,0,1.251,2.031,4.649,4.649,0,0,0,1.474.836,4.774,4.774,0,0,0,3.783-.405,3.693,3.693,0,0,0,.9-.751,4.673,4.673,0,0,0,.827-1.439,4.45,4.45,0,0,0,.22-1.229,5.146,5.146,0,0,0-.106-1.25,3.907,3.907,0,0,0-.45-1.193,3.426,3.426,0,0,0-.783-.964,4.5,4.5,0,0,0-1.5-.847,4.706,4.706,0,0,0-1.463-.215,2,2,0,1,0,0,4,3.621,3.621,0,0,1,.465.032l-.532-.071a2.664,2.664,0,0,1,.624.172l-.478-.2a2.277,2.277,0,0,1,.414.24l-.405-.313a2.1,2.1,0,0,1,.36.358l-.313-.405a2.22,2.22,0,0,1,.253.441l-.2-.478a2.642,2.642,0,0,1,.165.617l-.072-.531a3.2,3.2,0,0,1,0,.757l.071-.532a2.562,2.562,0,0,1-.175.65l.2-.477a2.3,2.3,0,0,1-.24.413l.313-.405a2.147,2.147,0,0,1-.37.374l.4-.313a2.26,2.26,0,0,1-.473.27l.478-.2a2.708,2.708,0,0,1-.632.163l.531-.071a3.342,3.342,0,0,1-.787,0l.532.071a2.665,2.665,0,0,1-.639-.174l.478.2a2.349,2.349,0,0,1-.434-.252l.4.313a2.246,2.246,0,0,1-.382-.379l.313.4a2.347,2.347,0,0,1-.271-.468l.2.477a2.573,2.573,0,0,1-.16-.6l.072.532a2.964,2.964,0,0,1,0-.723l-.072.532a2.58,2.58,0,0,1,.158-.605l-.2.478a2.223,2.223,0,0,1,.266-.464l-.313.405a2.118,2.118,0,0,1,.374-.371l-.4.313a2.275,2.275,0,0,1,.422-.245l-.478.2a2.646,2.646,0,0,1,.678-.182l-.532.072a3.518,3.518,0,0,1,.384-.024,2.071,2.071,0,0,0,1.414-.586,2,2,0,0,0-1.414-3.414Z"/><path class="a" d="M243.1,20.545a48.57,48.57,0,0,1,9.158.164c3.415.39,6.209.808,8.565,3.422,2.422,2.686,2.916,5.161,3.631,8.771,1.51,7.628,2.855,23.46,1.413,26.887-1.5,2.293-3.9,3.507-5.56,1.794-1.773-1.834-1.582-4.835-1.789-7.5-.348-4.5-1.794-14.871-2.731-19.282a3.734,3.734,0,0,0-1.032-2.231,3.889,3.889,0,0,0-2.321-.435,28.524,28.524,0,0,0-5.688.183"/><path class="a" d="M244.459,79c-2.673,2.729-8.776,8.025-29.936,8.335-21.159-.31-27.262-5.606-29.935-8.335-2.591-2.274-3.822-5.711-4.625-9.064-2.68-11.186,1.389-27.743,3.464-38.526a93.4,93.4,0,0,1,2.3-9.354c.634-2.283-3.59-7.929-4.271-10.621a5.223,5.223,0,0,1-.094-2.853c.247-.614,1.469-1.212,2.1-1.417,2.88-.94,10.469-2.722,15.987-3.855l36.548,3.93a13.682,13.682,0,0,1,4.384,6.276c1.65,3.671,4.309,13.515,5.24,17.894,2.075,10.783,6.145,27.34,3.465,38.526-.8,3.353-2.034,6.79-4.625,9.064"/><path class="c" d="M183.174,80.41c4.991,5.082,12.163,7.055,19.026,8.016a88.291,88.291,0,0,0,22.139.321A49.452,49.452,0,0,0,238.892,85.2a22.462,22.462,0,0,0,6.981-4.791c1.805-1.839-1.021-4.669-2.828-2.829a20.8,20.8,0,0,1-1.986,1.79c.48-.377-.229.16-.352.247q-.36.252-.733.489c-.612.388-1.245.744-1.892,1.07a40.624,40.624,0,0,1-12.125,3.367,84.828,84.828,0,0,1-20.875.244,45.356,45.356,0,0,1-13.09-3.122A25.479,25.479,0,0,1,188,79.376c-.092-.064-.461-.355-.015-.005-.13-.1-.262-.2-.388-.311-.2-.173-.41-.346-.609-.525-.34-.307-.668-.627-.989-.954-1.806-1.84-4.634.989-2.828,2.829Z"/><path class="c" d="M181.259,82.315c-1.777,8.227,10.009,11.616,15.838,12.825a85.145,85.145,0,0,0,22.094,1.542c6.386-.374,12.947-1.253,18.961-3.533,4.21-1.6,12.094-5.431,9.92-11.242a2.054,2.054,0,0,0-2.46-1.4,2.016,2.016,0,0,0-1.4,2.46c.4,1.078-.158,1.9-.919,2.679-.24.244-.5.47-.755.694a4.127,4.127,0,0,1-.649.486,22.418,22.418,0,0,1-4.8,2.462,58.275,58.275,0,0,1-16.129,3.27,84.488,84.488,0,0,1-20.447-.84c-4.156-.7-8.475-1.682-12.049-3.807a8.491,8.491,0,0,1-1.816-1.307c-.234-.216-.445-.452-.668-.679-.066-.067-.375-.472-.063-.055-.113-.151-.222-.3-.322-.465s-.475-1.027-.276-.465c-.083-.235-.137-.48-.217-.714-.05-.147-.038-.545,0,.053-.009-.16-.027-.318-.023-.479,0-.12.015-.24.018-.359.008-.352-.1.49.024-.066.542-2.51-3.313-3.583-3.857-1.064Z"/><path class="d" d="M210.086,41.813c-.069-2.481.187-5.523,2.437-6.571,1.655-.771,4.571-.563,5.655.906a10.853,10.853,0,0,1,1.852,5.461c0,5.67.442,11.849.442,17.376a5.244,5.244,0,0,1-.849,3.046c-1.042,1.464-3.109,1.772-4.889,1.531-1.516-.206-3.14-.844-3.791-2.228a5.781,5.781,0,0,1-.385-2.33C210.533,58.062,210.232,47.037,210.086,41.813Z"/><path class="c" d="M212.086,41.813c-.029-1.352-.2-3.865,1.164-4.7a2.75,2.75,0,0,1,3.7.831c1.175,2.12,1.065,4.266,1.115,6.61.06,2.781.183,5.561.279,8.341.045,1.291.084,2.582.107,3.873a9.5,9.5,0,0,1-.215,3.663c-.665,1.617-3.248,1.388-4.554.808s-1.115-1.911-1.148-3.126q-.054-1.99-.109-3.981-.168-6.162-.339-12.323c-.071-2.569-4.072-2.579-4,0q.189,6.782.373,13.564c.037,1.341.047,2.685.111,4.025a6.072,6.072,0,0,0,5.281,6.033c2.837.537,6.157-.036,7.714-2.731a8.491,8.491,0,0,0,.905-4.377c-.01-1.733-.059-3.465-.118-5.2-.12-3.54-.292-7.079-.318-10.621-.02-2.678-.643-5.987-2.617-7.986-2.011-2.036-5.766-2.249-8.186-.86-2.816,1.616-3.208,5.232-3.145,8.15C208.142,44.383,212.142,44.392,212.086,41.813Z"/><path class="c" d="M207.817,44.2c1.405.054,2.807.172,4.212.226a2,2,0,0,0,0-4c-1.405-.054-2.807-.172-4.212-.226a2,2,0,0,0,0,4Z"/><path class="c" d="M207.817,51.27c1.405.055,2.807.173,4.212.227a2,2,0,0,0,0-4c-1.405-.054-2.807-.172-4.212-.227a2,2,0,0,0,0,4Z"/><path class="c" d="M207.817,58.074c1.405.054,2.807.172,4.212.226a2,2,0,0,0,0-4c-1.405-.054-2.807-.172-4.212-.226a2,2,0,0,0,0,4Z"/><path class="b" d="M193.256,6.217c-.263,1.473.49,2.88,2.426,3.814,2.928,1.413,10.557,2.875,18.841,2.749,10.584,0,20.916-.115,20.916-5.337,0-3.588-10.993-5.448-20.16-5.447C204.505,2,193.669,3.9,193.256,6.217Z"/><path class="c" d="M191.256,6.217c-.479,3.609,2.909,5.571,5.861,6.487a50.607,50.607,0,0,0,10.816,1.855,121.29,121.29,0,0,0,13.17.158,41.271,41.271,0,0,0,10.665-1.244c2.435-.732,4.982-2.171,5.545-4.863.557-2.669-1.2-4.584-3.487-5.653A32.5,32.5,0,0,0,224.065.543a83.593,83.593,0,0,0-25.8,1.09c-2.284.513-6.274,1.333-6.942,4.053-.614,2.5,3.242,3.566,3.857,1.063.091-.368-.258.387-.252.371.046-.118.423-.311.039-.084a9.6,9.6,0,0,1,1.021-.57,21.118,21.118,0,0,1,3.34-.976A63.183,63.183,0,0,1,209.077,4.2c6.566-.431,13.43-.387,19.844,1.262a15.864,15.864,0,0,1,3.115,1.058c.215.107.422.226.632.342-.024-.012.579.389.3.175a3.671,3.671,0,0,1,.42.388c.11.117.126.139.016-.049.186.319.075-.168.03-.01-.022.08-.055.48.021.179-.129.514-.041.489-.331.8.246-.267-.236.217-.228.21-.508.421.284-.159-.3.224a5.973,5.973,0,0,1-1.355.657,28.719,28.719,0,0,1-8.064,1.2c-3.679.177-7.39.21-11.073.133a58.7,58.7,0,0,1-11.216-1.228,24.459,24.459,0,0,1-3.905-1.11,4.215,4.215,0,0,1-1.439-.9,1.41,1.41,0,0,1-.293-1.323,2.01,2.01,0,0,0-2-2A2.051,2.051,0,0,0,191.256,6.217Z"/><path class="c" d="M234.981,8.962c1.85,1.311,3,3.928,3.712,5.656.728,1.781,1.307,3.625,1.867,5.465,1.216,4,2.371,8.065,3.188,12.169,1.956,9.832,4.36,19.8,4.211,29.885-.078,5.214-.854,11.732-4.919,15.444-1.905,1.74.93,4.562,2.829,2.829,4.145-3.786,5.517-9.924,5.952-15.31a73.148,73.148,0,0,0-.962-16.517,206.9,206.9,0,0,0-6.247-28.915c-1.5-5.028-3.119-10.977-7.612-14.16-2.1-1.491-4.1,1.976-2.019,3.454Z"/><path class="c" d="M198.912,1.376Q193.938,2.4,189,3.6c-2.5.608-5.518,1.026-7.744,2.39-5.542,3.395,1.195,10.79,2.375,14.775.153.518.215.557.15.946.086-.516-.188.528-.225.66l-.34,1.207c-.461,1.655-.9,3.316-1.261,4.994-.7,3.223-1.295,6.473-1.938,9.707a133.036,133.036,0,0,0-2.9,20.787c-.271,7.12.437,16.218,6.051,21.344,1.9,1.732,4.734-1.089,2.828-2.829-2.431-2.219-3.481-5.376-4.187-8.509a37.006,37.006,0,0,1-.726-8.844,112.335,112.335,0,0,1,2.455-19.2c1.182-6.083,2.406-12.119,4.014-18.1,1.28-4.765-3.782-8.409-4.344-12.788a2.005,2.005,0,0,1-.028-.7c-.15.167-.167.2-.049.091a5.848,5.848,0,0,1,.56-.319,9.865,9.865,0,0,1,1.362-.448c1.417-.411,2.85-.773,4.282-1.127q5.292-1.307,10.634-2.4c2.519-.52,1.453-4.376-1.063-3.857Z"/><path class="c" d="M181.963,10.739A36.167,36.167,0,0,1,196.3,12.263a2,2,0,1,0,1.063-3.857,39.45,39.45,0,0,0-15.4-1.667,2.05,2.05,0,0,0-2,2,2.016,2.016,0,0,0,2,2Z"/><path class="c" d="M243.1,22.545a40.609,40.609,0,0,1,11.957.6,8.759,8.759,0,0,1,6.508,6.193,52.836,52.836,0,0,1,1.732,8.808c.423,3.078.725,6.176.937,9.275a74.8,74.8,0,0,1,.2,8.678q-.036.735-.107,1.466c-.012.133-.027.268-.046.4,0-.033.044-.294,0-.068s-.075.439-.128.655c-.162.663-1.334,2.137-2.2,1.836-1.122-.389-1.224-2.86-1.288-3.777-.1-1.458-.168-2.913-.316-4.367-.335-3.268-.775-6.526-1.25-9.776-.257-1.757-.528-3.511-.83-5.26a19.3,19.3,0,0,0-1.067-4.576c-1.045-2.341-3.139-2.425-5.386-2.531a38.525,38.525,0,0,0-5.071.215c-2.547.213-2.569,4.215,0,4a38.522,38.522,0,0,1,4.7-.231c.5.02,1,.048,1.508.062.259.007.729.171.525-.047.411.439.444,1.547.56,2.14.64,3.289,1.122,6.614,1.573,9.934.426,3.141.823,6.292.993,9.458.189,3.524,1.166,9.188,5.938,8.723a6.984,6.984,0,0,0,4.931-3.386,7.627,7.627,0,0,0,.828-3.2,51.484,51.484,0,0,0,.04-8.522c-.359-6.683-.931-13.671-2.685-20.154-1.148-4.247-3.923-7.983-8.192-9.432a28.009,28.009,0,0,0-6.671-1.091,47.676,47.676,0,0,0-7.7-.021c-2.548.206-2.57,4.208,0,4Z"/><path class="d" d="M402.506,137.271a6.444,6.444,0,0,0-3.033-2.708,13.517,13.517,0,0,0-6.781-1.384l-6.99.4a7.065,7.065,0,0,0,.7-2.7,9.547,9.547,0,0,0-2.1-5.865c-3.3-4.542-10.632-6.2-15.985-7.733-5.895-1.689-13.146-3.169-18.742-4.358l-18.352.132c-4.165.793-10.852,1.921-16.747,3.61-5.353,1.534-12.992,3.807-16.293,8.349a9.547,9.547,0,0,0-2.1,5.865,7.7,7.7,0,0,0,1.443,4.016c-.006-.01-.015-.019-.022-.029q.05.477.1.954l-8.365-.745a13.517,13.517,0,0,0-6.781,1.384,6.444,6.444,0,0,0-3.033,2.708,5.73,5.73,0,0,0,.8,5.688,17.442,17.442,0,0,0,4.509,3.958,15.881,15.881,0,0,1,4.437,4.03c1.839,2.8,3.417,6.573,8.7,7.63l2.264.191c.133,1.29.276,2.592.485,3.878a19.073,19.073,0,0,0,2.834,7.9,16.951,16.951,0,0,0,7.69,5.806,45.259,45.259,0,0,0,9.454,2.4c3.151.543,6.315,1.034,9.5,1.28,3.709.285,7.391.29,11.138.29,3.963,0,7.441,0,11.151-.29,3.188-.246,6.352-.737,9.5-1.28a45.259,45.259,0,0,0,9.454-2.4,16.951,16.951,0,0,0,7.69-5.806c2.434-3.533,2.94-8,3.373-12.273l.075-.736,1.665-.368c7.043-1.056,6.767-5.315,8.607-8.113a15.869,15.869,0,0,1,4.437-4.031,17.442,17.442,0,0,0,4.509-3.958A5.73,5.73,0,0,0,402.506,137.271Z"/><path class="d" d="M391.12,133.14l-6.445-.16-.559,10.423-1.607,15.833c8.74-.608,8.281-5.288,10.253-8.289a15.881,15.881,0,0,1,4.437-4.03,17.442,17.442,0,0,0,4.509-3.958,5.73,5.73,0,0,0,.8-5.688,6.444,6.444,0,0,0-3.033-2.708,13.517,13.517,0,0,0-6.781-1.384Z"/><path class="d" d="M288.225,151.636a21.175,21.175,0,0,0-3.485-2.826,17.442,17.442,0,0,1-4.509-3.958,5.73,5.73,0,0,1-.8-5.688,6.444,6.444,0,0,1,3.033-2.708,13.517,13.517,0,0,1,6.781-1.384l8.328.408c.371,3.627.81,7.923.81,7.923l1.7,16.762c.019.19.039.38.057.571-7.142-.321-8.886-4.732-10.966-7.9A9.244,9.244,0,0,0,288.225,151.636Z"/><path class="c" d="M333.206,110.61c-5.667,1.075-11.354,2.088-16.948,3.5-5.548,1.405-11.628,3.035-16.306,6.46a14.087,14.087,0,0,0-5.559,7.687,9.985,9.985,0,0,0,2.88,9.447c4.693,4.8,12.172,6.061,18.5,7.072a156.533,156.533,0,0,0,46.267.552c6.331-.888,13.014-1.83,18.841-4.611a13.423,13.423,0,0,0,6.63-6.255,10.161,10.161,0,0,0-1.228-10.119c-3.882-5.665-11.219-7.243-17.424-9-6.777-1.917-13.72-3.206-20.6-4.665-2.511-.532-3.584,3.323-1.063,3.857,5.732,1.215,11.488,2.337,17.176,3.755,2.53.63,5.046,1.34,7.547,2.076a33.018,33.018,0,0,1,7.371,2.911,10.035,10.035,0,0,1,4.967,6.041c.675,2.738-1.1,5.311-3.31,6.781-4.563,3.036-10.588,3.857-15.883,4.741a152.237,152.237,0,0,1-41.731.957c-3.573-.4-7.137-.926-10.667-1.607a35.536,35.536,0,0,1-8.215-2.441c-2.472-1.147-5.131-2.833-6.073-5.541-.951-2.733.747-5.622,2.721-7.445a22.2,22.2,0,0,1,7.371-4.093,84.24,84.24,0,0,1,8.513-2.617c5.7-1.468,11.51-2.5,17.292-3.593,2.526-.48,1.456-4.336-1.063-3.857Z"/><path class="c" d="M296.385,143.4l1.576,15.529c.452,4.454.8,9.067,2.921,13.1,4.426,8.44,14.966,10,23.452,11.22a107.647,107.647,0,0,0,15.2.956,138.059,138.059,0,0,0,14.767-.464,87.321,87.321,0,0,0,14.5-2.529c4.147-1.172,8.3-3.179,11.067-6.585,3.209-3.95,3.968-8.935,4.479-13.847.6-5.793,1.177-11.589,1.765-17.383a2.013,2.013,0,0,0-2-2,2.045,2.045,0,0,0-2,2l-1.451,14.3c-.4,3.964-.539,8.3-2.315,11.951-3.782,7.772-14.164,8.777-21.722,9.815a100.412,100.412,0,0,1-13.439.745c-4.678.012-9.375.059-14.038-.369a87.094,87.094,0,0,1-13.493-2.24c-3.707-.947-7.433-2.5-9.952-5.5-2.862-3.405-3.239-8.192-3.67-12.432q-.826-8.135-1.651-16.269a2.057,2.057,0,0,0-2-2,2.014,2.014,0,0,0-2,2Z"/><path class="c" d="M340.654,103.4a33.628,33.628,0,0,0-5.942.558,12.106,12.106,0,0,0-4.709,1.51c-1.324.881-1.177,2.328-.5,3.614a38.473,38.473,0,0,0,3.326,4.7,24.54,24.54,0,0,0,3.175,4.176c.891.792,2.494,1.153,4.649,1.153s3.758-.361,4.648-1.153a24.488,24.488,0,0,0,3.175-4.176,38.473,38.473,0,0,0,3.326-4.7c.678-1.286.825-2.733-.5-3.614a12.106,12.106,0,0,0-4.709-1.51A33.625,33.625,0,0,0,340.654,103.4Z"/><path class="c" d="M289.247,133.072c-4.031-.171-9.5,1.189-11.541,5.083-2.133,4.077.665,8.336,3.857,10.809a50.162,50.162,0,0,1,4.925,3.754,21.611,21.611,0,0,1,2.545,3.65,13.122,13.122,0,0,0,8.312,6.03c2.509.545,3.582-3.31,1.063-3.857a9.065,9.065,0,0,1-5.921-4.192c-.693-1.051-1.293-2.161-2.055-3.166a17.39,17.39,0,0,0-3.857-3.519c-2.152-1.545-5.971-3.625-5.579-6.814.182-1.481,1.629-2.31,2.874-2.855a12,12,0,0,1,5.377-.923c2.574.109,2.569-3.892,0-4Z"/><path class="c" d="M286.812,144.589,290,145.958a1.5,1.5,0,0,0,.743.238,1.526,1.526,0,0,0,.8-.036,2,2,0,0,0,1.4-2.46l-.2-.478a2.014,2.014,0,0,0-.717-.718l-3.187-1.369a1.486,1.486,0,0,0-.743-.237,1.515,1.515,0,0,0-.8.035,2,2,0,0,0-1.4,2.461l.2.477a2.008,2.008,0,0,0,.718.718Z"/><path class="c" d="M312.109,123.7a4.954,4.954,0,0,0-2.575,6.439c.937,2.146,2.67,3.137,4.752,3.929,4.943,1.882,10.492,2.48,15.717,2.994a119.179,119.179,0,0,0,20.813.269,68.467,68.467,0,0,0,15.981-2.736c2.266-.743,4.692-1.73,5.95-3.9a5.716,5.716,0,0,0-2.058-7.537c-2.208-1.336-4.221,2.122-2.019,3.454,1.47.89.626,2.462-.533,3.122a16.346,16.346,0,0,1-3.7,1.4,69.1,69.1,0,0,1-13.176,2.164c-10.519.855-21.583.514-31.891-1.907a22.9,22.9,0,0,1-4.936-1.589,2.42,2.42,0,0,1-1.352-1.51c.134.426,0-.056-.011.019a2.891,2.891,0,0,0,.136-.448,1.73,1.73,0,0,1,.924-.707,2.016,2.016,0,0,0,.718-2.736,2.046,2.046,0,0,0-2.737-.718Z"/><path class="c" d="M323.429,118.916c-2.96,2.638-1.09,6.842,2.054,8.25a30.288,30.288,0,0,0,10.055,2.032,69.681,69.681,0,0,0,12.69-.153,28.206,28.206,0,0,0,8.482-1.953,7.159,7.159,0,0,0,3.162-2.46,4.789,4.789,0,0,0-.8-5.914c-1.8-1.846-4.628.984-2.828,2.828,1.373,1.407-2.479,2.425-3.33,2.652a42.068,42.068,0,0,1-9.805,1.171,57.945,57.945,0,0,1-12.038-.724,19.78,19.78,0,0,1-3.678-.979c-.73-.313-2.115-1.051-1.137-1.922,1.926-1.716-.911-4.536-2.829-2.828Z"/><path class="c" d="M392.692,135.179c2.583-.11,8.648.731,8.257,4.464-.377,3.6-5,5.506-7.434,7.546a11.619,11.619,0,0,0-2.977,3.628c-.441.877-.764,1.808-1.2,2.688-1.153,2.321-3.055,3.2-5.713,3.628a2.015,2.015,0,0,0-1.4,2.46,2.049,2.049,0,0,0,2.46,1.4,10.679,10.679,0,0,0,7.187-3.956c1.111-1.5,1.536-3.333,2.507-4.907,1.775-2.877,5.383-4.173,7.709-6.533,2.476-2.514,3.964-6.6,1.858-9.815-2.3-3.5-7.313-4.767-11.256-4.6-2.564.108-2.578,4.109,0,4Z"/><path class="c" d="M393.109,139.242l-3.187,1.369a2.245,2.245,0,0,0-.919,1.2,2.043,2.043,0,0,0,.2,1.541,2.017,2.017,0,0,0,1.195.919l.532.071a1.987,1.987,0,0,0,1.009-.273l3.186-1.369a2.233,2.233,0,0,0,.92-1.195,2.047,2.047,0,0,0-.2-1.541,2.018,2.018,0,0,0-1.2-.92l-.532-.071a1.985,1.985,0,0,0-1.009.273Z"/><path class="a" d="M55.7,142.346c-2,12.383,7.018,21.889,19.048,26.836,7.735,3.181,17.981,4.327,27.874,4.22,10.708-.115,26.009-4.434,35.878-13.071,5.546-4.854,8.052-9.826,6.467-17.124a25.3,25.3,0,0,0-11.277-15.875C116.479,116.378,88.92,117,70.848,125.45a28.182,28.182,0,0,0-13.28,12.1A16.584,16.584,0,0,0,55.7,142.346Z"/><path class="a" d="M52.153,124.482c-.1-.029-.2-.057-.3-.085-3.606,1.585-6.511,6.015-5.9,9.216,2.542-.158,4.085,1.156,5.657,2.618,1.742,1.62,2.757,3.073,4.41,4.824a22.5,22.5,0,0,1,1.554-3.5,24.319,24.319,0,0,1,4.22-5.776,45.968,45.968,0,0,0-4.932-4.71A13.019,13.019,0,0,0,52.153,124.482Z"/><path class="b" d="M10.063,109.018a11.009,11.009,0,0,0-3.64.381c-2.713.782-5.044,3.594-4.286,6.314.7,2.528,3.506,3.741,5.979,4.618C21.21,124.973,32.9,129.193,46,133.839c-.935-3.765,3.28-9.436,7.8-9.988-.482-1.164-3.964-2.5-6.083-3.223-6.361-2.184-13.122-4.2-19.657-6.413-4.524-1.532-8.571-2.9-13.163-4.211a28.817,28.817,0,0,0-3.979-.905C10.634,109.062,10.35,109.034,10.063,109.018Z"/><path class="b" d="M55.444,147.521c1.707,11.722,3.722,21.789,13.2,29.665,9.871,8.2,23.292,10.387,35.765,9.36,9.509-.783,19.146-3.157,26.957-8.865,8.817-6.442,12.322-16.113,13.734-26.635l.21-1.775c-.558,4.241-2.946,7.68-6.809,11.06-9.869,8.637-25.17,12.956-35.878,13.071-9.893.107-20.139-1.039-27.874-4.22-9.988-4.107-17.9-11.357-19.155-20.786Z"/><path class="c" d="M53.773,141.814a23.572,23.572,0,0,0,6.285,19.936C65.372,167.5,72.832,171.2,80.344,173.1a77.607,77.607,0,0,0,13.586,2.054,76.966,76.966,0,0,0,12.657.03,65.8,65.8,0,0,0,22.6-6.4c6.709-3.285,14.15-8.244,17.085-15.42,3.021-7.385-.149-16.123-4.967-21.973-4.909-5.962-12.4-9.441-19.681-11.564a73.36,73.36,0,0,0-23.606-2.648A77.255,77.255,0,0,0,75.24,121.5c-7.593,2.738-14.8,7.01-18.932,14.2a20.129,20.129,0,0,0-2.535,6.123c-.472,2.516,3.382,3.594,3.858,1.063.69-3.675,3.109-7.2,5.7-9.82A30.282,30.282,0,0,1,72.47,126.9a67.033,67.033,0,0,1,20.065-5.287c13.686-1.529,29.3-.023,40.941,7.977,5.77,3.966,10.127,10.94,9.957,18.09-.164,6.905-6.314,11.828-11.713,15.158a60.005,60.005,0,0,1-20.366,7.667,71.93,71.93,0,0,1-22.724.127c-7.618-1.024-15.052-3.3-21.348-7.814-4.965-3.564-9.149-8.872-9.768-15.128a19.3,19.3,0,0,1,.117-4.808,2.065,2.065,0,0,0-1.4-2.46A2.016,2.016,0,0,0,53.773,141.814Z"/><path class="c" d="M53.243,121.922a11.01,11.01,0,0,0-6.789,4.285,10.134,10.134,0,0,0-2.442,7.905,2.01,2.01,0,0,0,2.461,1.4,2.056,2.056,0,0,0,1.4-2.46c-.063-.378.025.533.012.054,0-.128-.015-.254-.015-.382,0-.223.045-.449.041-.671.008.528-.037.27,0,.076q.033-.174.075-.345c.062-.255.138-.506.224-.753.034-.1.167-.312.154-.406l-.1.246q.051-.117.105-.231c.109-.233.228-.462.355-.686.14-.248.291-.49.45-.726.086-.129.178-.253.267-.381.227-.325-.261.313.014-.019A12.551,12.551,0,0,1,50.6,127.6a3,3,0,0,1,.662-.566c-.213.163-.259.2-.14.111l.161-.116c.108-.077.217-.151.328-.223.237-.154.482-.3.732-.429.134-.07.27-.132.405-.2.351-.173-.4.14-.007,0a8.166,8.166,0,0,1,1.57-.4,1.993,1.993,0,0,0,1.2-.919,2.042,2.042,0,0,0,.2-1.542,2.064,2.064,0,0,0-2.46-1.4Z"/><path class="c" d="M53.515,148.053c1.188,8.124,2.667,16.513,7.329,23.464,5.016,7.477,12.939,12.491,21.481,15.024,8.813,2.613,18.19,2.707,27.233,1.421,9.344-1.328,18.862-4.571,25.908-11.073,7.111-6.561,10.284-15.954,11.563-25.311a2.069,2.069,0,0,0-1.4-2.46,2.014,2.014,0,0,0-2.46,1.4c-1.046,7.657-3.218,15.492-8.442,21.408-5.779,6.543-14.288,9.947-22.685,11.587-15.928,3.109-35.778,1.251-46.564-12.378-5.421-6.851-6.881-15.739-8.109-24.142a2.013,2.013,0,0,0-2.46-1.4,2.052,2.052,0,0,0-1.4,2.46Z"/><path class="c" d="M46.444,131.879Q36.217,128.251,26,124.587q-5.01-1.791-10.02-3.578c-3.117-1.111-6.506-1.968-9.453-3.483-2-1.028-3.454-2.794-1.687-4.832,2.135-2.462,5.9-1.742,8.648-1,6.763,1.814,13.344,4.274,20.006,6.417,3.818,1.228,7.646,2.425,11.451,3.694,1.575.525,3.175,1.027,4.7,1.68a15.513,15.513,0,0,1,1.648.808,6.787,6.787,0,0,0,.718.458q-.147-.038.119.147-.321-.74-.213-.285c.459,2.529,4.315,1.458,3.857-1.063-.473-2.6-4.579-3.782-6.665-4.539-3.657-1.329-7.388-2.468-11.095-3.65-7.676-2.45-15.263-5.249-23.03-7.4-3.563-.989-7.684-1.631-11.042.361-2.822,1.674-4.809,5.142-3.572,8.407,1.174,3.1,4.3,4.493,7.21,5.538,3.933,1.413,7.876,2.8,11.813,4.206q12.99,4.638,25.983,9.271c2.43.863,3.476-3,1.063-3.857Z"/><path class="c" d="M62.647,129.78c-3.011-3.146-6.262-6.314-10.611-7.4a2,2,0,0,0-1.063,3.857,14.024,14.024,0,0,1,1.473.445,1.637,1.637,0,0,0,.345.133c-.065.021-.354-.161-.083-.033.186.088.373.175.556.27a15.033,15.033,0,0,1,2.1,1.365l.215.164c.17.129-.322-.257,0,0,.2.164.408.328.608.5.422.355.831.725,1.232,1.1.826.78,1.614,1.6,2.4,2.419a2.019,2.019,0,0,0,2.828,0,2.041,2.041,0,0,0,0-2.829Z"/><path class="c" d="M47.287,135.709a5.435,5.435,0,0,0,.625.206c-.093-.013-.364-.169-.122-.048.1.048.192.094.287.145.36.193.671.462,1.023.66-.406-.229-.163-.127-.048-.033.084.069.168.138.251.209.167.142.331.288.494.436.335.3.665.612.985.932,1.265,1.264,2.366,2.68,3.577,4a2.014,2.014,0,0,0,2.828,0,2.043,2.043,0,0,0,0-2.828c-1.277-1.387-2.434-2.884-3.786-4.2a12.144,12.144,0,0,0-5.051-3.329,2,2,0,0,0-1.063,3.857Z"/><path class="c" d="M76.318,142.411c2.64-3.4,6.745-5.1,10.807-6.152a54.867,54.867,0,0,1,15.456-1.525,53.032,53.032,0,0,1,15.462,2.95,40.813,40.813,0,0,1,12.131,6.331,18.286,18.286,0,0,1,4.109,4.329,7.775,7.775,0,0,1,1.4,4.488c-.072,2.575,3.928,2.573,4,0,.11-3.989-2.227-7.531-5.01-10.19a40.248,40.248,0,0,0-12.947-7.841,58.7,58.7,0,0,0-33.95-2.8c-5.219,1.123-10.9,3.227-14.282,7.585a2.067,2.067,0,0,0,0,2.829,2.013,2.013,0,0,0,2.828,0Z"/><path class="a" d="M131.026,124.357c7.225-7.725,12.8-14.073,19.771-21.761.955-1.053,1.887-2.321,3.289-2.551a2.777,2.777,0,0,1,2.906,2.487,2.7,2.7,0,0,1-.735,1.775c-6.93,7.836-13.748,15.571-21.031,23.3"/><path class="a" d="M112.111,147.19a23.01,23.01,0,0,0,5.014,2,6.084,6.084,0,0,0,3.166.038,5.906,5.906,0,0,0,2.458-1.646c3.532-3.929,11.038-16.508,12.033-18.619a2.015,2.015,0,0,0,.153-1.294c-.4-1.087-2.9-2.154-3.971-2.487,0,0-.5-.125-1.167-.318-8.175,5.019-16.752,9.558-24.922,14.582-.442.272-.935.627-.955,1.145a1.566,1.566,0,0,0,.6,1.077A37.214,37.214,0,0,0,112.111,147.19Z"/><path class="c" d="M132.44,125.771c5.932-6.347,11.709-12.834,17.529-19.283.746-.827,1.5-1.649,2.242-2.478a7.841,7.841,0,0,1,1.767-1.8c.318-.169.793-.267.955.228.181.554-1.032,1.519-1.368,1.9q-4.54,5.133-9.1,10.244-5.261,5.862-10.648,11.608c-1.764,1.873,1.059,4.707,2.828,2.828q5.565-5.91,10.969-11.966,2.647-2.952,5.275-5.922,1.277-1.44,2.552-2.881a31.471,31.471,0,0,0,2.8-3.249,4.388,4.388,0,0,0-1.078-5.94,4.612,4.612,0,0,0-6.027.307,48.572,48.572,0,0,0-4.768,5.158q-2.5,2.769-4.988,5.544c-3.887,4.322-7.792,8.626-11.76,12.873-1.757,1.879,1.066,4.714,2.828,2.828Z"/><path class="c" d="M111.1,148.917c3.176,1.66,7.381,3.572,10.879,1.766,2.165-1.118,3.619-3.379,4.993-5.312,2.87-4.038,5.486-8.277,7.972-12.561.819-1.413,2.088-3.141,2.043-4.838-.073-2.763-3.6-4.178-5.836-4.808a3.026,3.026,0,0,0-2.569.1c-.91.5-1.781,1.083-2.672,1.614q-2.584,1.539-5.194,3.036c-3.55,2.044-7.119,4.055-10.66,6.115-1.939,1.128-3.874,2.265-5.783,3.442-1.669,1.029-3.11,2.7-1.9,4.717.9,1.5,2.7,2.665,4.061,3.695a37.34,37.34,0,0,0,4.667,3.036c2.263,1.229,4.284-2.223,2.019-3.454a36.822,36.822,0,0,1-4.187-2.678q-.891-.653-1.732-1.37c-.346-.3-1.291-.934-1.352-1.355v1.063c-.063.284.648-.325.854-.451q.819-.5,1.644-.992,1.65-.989,3.312-1.957c2.082-1.214,4.173-2.409,6.266-3.6,4.319-2.466,8.639-4.93,12.881-7.528l-1.541.2a18.568,18.568,0,0,1,1.849.56,20.235,20.235,0,0,0,1.822.977c.185.207.246.26.181.158q-.267-.237-.1-.457a3.556,3.556,0,0,0-.195.382c-.194.37-.4.736-.6,1.1-1.4,2.486-2.882,4.922-4.4,7.335-1.684,2.68-3.4,5.357-5.31,7.883-.648.858-1.57,2.173-2.753,2.568-2.039.682-4.89-.921-6.64-1.836C110.841,144.272,108.817,147.723,111.1,148.917Z"/></svg>